<svg width="40" height="40" viewBox="0 0 40 40" fill="none" xmlns="http://www.w3.org/2000/svg">
<rect width="40" height="40" fill="#D94625"/>
<path d="M20.1816 35.8365C11.5192 35.8365 4.45496 28.8733 4.45496 20.2951C4.45496 11.7347 11.5011 4.75366 20.1816 4.75366C28.844 4.75366 35.9082 11.7168 35.9082 20.2951C35.9082 28.8554 28.844 35.8365 20.1816 35.8365ZM20.1816 5.23821C11.7735 5.23821 4.94528 11.986 4.94528 20.2951C4.94528 28.6042 11.7735 35.3519 20.1816 35.3519C28.5897 35.3519 35.4179 28.6042 35.4179 20.2951C35.4179 11.986 28.5897 5.23821 20.1816 5.23821ZM26.6284 13.3678C26.6648 13.2422 26.6648 13.1166 26.6466 12.991C26.6466 12.9012 26.6284 12.7577 26.574 12.6679C26.6284 12.632 26.6648 12.5961 26.7192 12.5603C26.7737 12.7038 26.7737 12.8474 26.7737 12.8474C26.7737 12.9371 26.8645 12.9551 26.9008 12.9551C26.919 12.9551 26.9372 12.9371 26.9553 12.9192C27.0461 12.8115 27.0461 12.5782 26.9372 12.3808C27.1006 12.2731 27.2459 12.1475 27.3912 12.0398C27.3912 12.0578 27.3912 12.0757 27.4093 12.0937C27.4275 12.1834 27.4456 12.2552 27.4456 12.3628C27.4456 12.5423 27.4093 12.7218 27.3185 12.8653C27.2277 13.0089 27.1188 13.1345 26.9553 13.2243C26.8827 13.2781 26.7919 13.2961 26.7192 13.3319C26.7011 13.3499 26.6648 13.3678 26.6284 13.3678ZM25.2483 14.2651C25.2301 14.301 25.2119 14.319 25.1938 14.3549C25.2301 14.4087 25.2664 14.4984 25.3391 14.4984C25.3936 14.4984 25.4299 14.3908 25.448 14.3549C25.5207 14.1934 25.666 14.0857 25.7931 13.978C25.9202 13.8703 26.0655 13.7627 26.1744 13.637C26.2834 13.5114 26.356 13.3678 26.3742 13.2063C26.3923 13.1166 26.3742 13.0269 26.3742 12.9192C26.3742 12.8833 26.356 12.8474 26.356 12.8115C26.2834 12.8653 26.2289 12.9012 26.1563 12.9551C26.1744 12.991 26.1926 13.0986 26.1926 13.1525C26.1926 13.4037 26.0291 13.5114 26.011 13.5294C25.9747 13.5473 25.9384 13.5294 25.9384 13.4935C25.9747 13.2243 25.9384 13.0986 25.9384 13.0986C25.8657 13.1525 25.8112 13.1884 25.7386 13.2422C25.7386 13.2422 25.7749 13.314 25.7749 13.3499C25.7931 13.4037 25.7931 13.4755 25.7931 13.5294C25.7386 13.7268 25.6296 13.7985 25.5933 13.8344C25.557 13.8524 25.4843 13.8883 25.5025 13.8524C25.6296 13.4935 25.5207 13.4037 25.5207 13.4037C25.4844 13.4396 25.4299 13.4576 25.3935 13.4935C25.3935 13.5114 25.4117 13.5294 25.4117 13.5473C25.4299 13.5832 25.4299 13.637 25.4299 13.6729C25.4299 13.7447 25.4299 13.8165 25.4299 13.9062C25.3936 14.0318 25.3209 14.1575 25.2483 14.2651ZM17.4939 9.90422C16.9128 9.7786 16.3317 9.68887 15.7505 9.56324C15.7505 9.56324 15.7687 9.56324 15.7687 9.5453C16.4588 9.09664 17.8571 8.66593 18.6743 8.55825C19.1102 8.50442 19.546 8.46852 19.9818 8.48647C20.0545 8.48647 20.1271 8.48647 20.1998 8.50442C20.9988 8.50442 21.7978 8.64799 22.5606 8.88129C22.9601 9.00691 23.3415 9.16843 23.7047 9.34789C24.086 9.52735 24.4492 9.76065 24.8124 9.97601C25.1756 10.1914 25.557 10.3529 25.9384 10.4964C26.5921 10.7297 27.1732 10.7477 27.2459 10.7477C27.4638 10.7477 27.718 10.6939 27.827 10.9272C27.9904 11.2502 27.5546 11.5732 27.373 11.7168C27.1551 11.8962 26.9372 12.0398 26.7192 12.2193C26.0836 12.7038 24.1587 13.8524 23.8136 14.0857C23.3233 14.4087 22.4698 14.8394 21.7978 15.1625C21.9976 16.0418 22.379 18.3928 20.3269 18.6979C20.3269 18.6979 20.6719 18.4825 20.8172 18.2671C20.8172 18.2671 20.454 18.5902 20.0182 18.5722C20.0182 18.5722 20.6538 18.3389 21.0351 17.8185C21.1259 17.6929 21.5436 17.0468 20.9806 16.2572C20.908 16.1674 20.8354 16.0598 20.7627 15.9521C20.4358 15.5214 20.2542 15.1804 20.2542 14.9471V14.9292C20.2542 14.9112 20.2542 14.9112 20.2724 14.8933C20.2906 14.8574 20.3269 14.8394 20.3632 14.8215C20.5266 14.7497 20.7082 14.6779 20.8717 14.6061C21.1622 14.4805 21.4528 14.3549 21.7434 14.2113C22.0339 14.0857 24.0497 12.9551 24.1223 12.9012C24.195 12.8474 24.2495 12.7936 24.3221 12.7397C24.3403 12.7218 24.3221 12.6859 24.3039 12.7038C24.1587 12.7577 22.7422 13.4396 22.5969 13.5114C22.4879 13.5652 22.3971 13.6191 22.2882 13.655C22.3245 13.6011 22.4879 13.3319 22.5061 13.3319C22.7059 13.2243 23.632 12.6859 23.741 12.5782C23.7591 12.5603 23.741 12.5244 23.7047 12.5423C23.5957 12.6141 23.1235 12.8653 22.9964 12.9192C22.7422 13.0448 22.4879 13.1704 22.2337 13.2961C22.1974 13.314 22.1611 13.3319 22.1247 13.3499C22.1247 13.3319 22.1974 13.2243 22.1974 13.2063C22.1974 13.1884 22.1792 13.1704 22.161 13.1884C22.161 13.2063 21.9068 13.4396 21.9068 13.4396C21.7978 13.4935 21.6889 13.5473 21.5799 13.6011C21.5799 13.6011 21.5799 13.5832 21.5981 13.5832C21.6344 13.5114 21.7797 13.314 21.7978 13.2961C21.9795 13.1884 23.7047 12.2013 23.8318 12.1116C23.8499 12.0937 23.8318 12.0578 23.8136 12.0757C23.6865 12.1475 21.8342 13.0986 21.7615 13.1345C21.7797 13.1166 21.8887 12.8833 22.0339 12.7577C22.0884 12.7218 23.4686 11.968 23.5231 11.9142C23.5594 11.8783 23.5412 11.8424 23.5049 11.8424C23.4504 11.8604 22.9783 12.1116 22.8693 12.1654C22.6514 12.2731 21.4346 12.8833 21.362 12.9192C21.4165 12.8294 21.471 12.7397 21.4891 12.65C22.1792 12.2731 23.4867 11.6988 23.5775 11.645C23.6139 11.6271 23.5775 11.5732 23.5412 11.5732C23.4867 11.5732 22.1247 12.1295 21.5254 12.4346V12.4167C21.5254 12.309 21.5073 12.2013 21.4891 12.1116C21.5436 12.0937 21.5981 12.0578 21.6526 12.0219C21.7434 11.968 21.8523 11.9142 21.9431 11.8604C22.0339 11.8065 22.1429 11.7706 22.2337 11.7168C22.2882 11.6988 22.3245 11.6629 22.379 11.645C22.4335 11.6271 22.4698 11.5912 22.5061 11.5553C22.5243 11.5373 22.5061 11.5014 22.4879 11.5014C22.3971 11.5194 22.3063 11.5553 22.2155 11.5912C22.1247 11.6271 22.0339 11.6629 21.925 11.7168C21.816 11.7706 21.7071 11.8065 21.5799 11.8604C21.5254 11.8783 21.471 11.9142 21.4165 11.9501C21.3802 11.8604 21.3438 11.7886 21.3075 11.7168C21.3257 11.6988 21.362 11.6988 21.3802 11.6809C21.471 11.645 21.5618 11.5912 21.6526 11.5373C21.7434 11.5014 21.8342 11.4476 21.925 11.4117C21.9795 11.3938 22.0158 11.3758 22.0703 11.3579C22.1066 11.3399 22.1611 11.304 22.1974 11.2681C22.2337 11.2502 22.1974 11.1784 22.161 11.1784C22.1247 11.1784 22.0703 11.1963 22.0339 11.1963C22.0158 11.1963 21.9976 11.1963 21.9976 11.2143C21.8342 11.2861 21.6889 11.3579 21.5254 11.4117C21.4528 11.4476 21.3983 11.4655 21.3257 11.5014C21.2894 11.5194 21.253 11.5373 21.2167 11.5553C21.1804 11.5194 21.1441 11.4655 21.1078 11.4296C21.1259 11.4296 21.1441 11.4117 21.1622 11.3938L21.1804 11.3758C21.1986 11.3758 21.1986 11.3579 21.2167 11.3579C21.2349 11.3399 21.253 11.3399 21.2712 11.322C21.2894 11.304 21.3075 11.2861 21.3257 11.2861C21.3438 11.2681 21.362 11.2681 21.3802 11.2502C21.3983 11.2322 21.3802 11.2143 21.362 11.2143C21.3438 11.2143 21.3257 11.2143 21.2894 11.2143C21.2712 11.2143 21.253 11.2143 21.2167 11.2322C21.1986 11.2322 21.1986 11.2322 21.1804 11.2322H21.1622C21.1804 11.2322 21.1622 11.2322 21.1441 11.2322C21.1259 11.2322 21.1259 11.2322 21.1078 11.2322C21.0896 11.2322 21.0896 11.2322 21.1078 11.2322C21.0896 11.2322 21.0896 11.2322 21.0714 11.2322C21.0351 11.2502 20.9988 11.2681 20.9625 11.2681C20.908 11.2143 20.8354 11.1425 20.7627 11.0887C20.3269 10.7477 19.8002 10.5323 19.2736 10.3529C18.7106 10.1734 18.1114 10.0298 17.4939 9.90422ZM22.4153 12.632C22.3971 12.6141 22.3245 12.632 22.3245 12.632C22.3245 12.632 22.2337 12.6859 22.2882 12.7218C22.3063 12.7397 22.3608 12.7218 22.3971 12.7038C22.3971 12.7038 22.4516 12.6859 22.4153 12.632ZM22.4153 13.0807C22.4153 13.0628 22.4153 13.0628 22.4153 13.0807V13.0628C22.4153 13.0628 22.4153 13.0448 22.3971 13.0448C22.3971 13.0448 22.3971 13.0448 22.379 13.0448H22.3608C22.3427 13.0448 22.3427 13.0448 22.3245 13.0628C22.3063 13.0628 22.3063 13.0807 22.2882 13.0807V13.0986C22.2882 13.1166 22.27 13.1166 22.27 13.1345V13.1525V13.1704C22.27 13.1704 22.27 13.1704 22.27 13.1884C22.27 13.1884 22.27 13.2063 22.2882 13.2063C22.2882 13.2063 22.2882 13.2063 22.3063 13.2063H22.3245H22.3427C22.3427 13.2063 22.3608 13.2063 22.3608 13.1884L22.379 13.1704L22.3971 13.1525C22.3971 13.1525 22.4153 13.1345 22.4153 13.1166C22.4153 13.0986 22.4153 13.0986 22.4153 13.0807ZM24.1405 12.3628C24.1405 12.3449 24.1223 12.327 24.0315 12.327C24.0315 12.327 24.0315 12.327 24.0134 12.327C23.9952 12.327 23.9771 12.3449 23.9771 12.3449C23.9226 12.3628 23.8681 12.4526 23.8863 12.4526V12.4705C23.8863 12.4885 23.8863 12.4885 23.9044 12.5064C23.9407 12.5423 24.0134 12.5064 24.0315 12.5064C24.1042 12.4885 24.1405 12.4346 24.1405 12.4167C24.1587 12.3987 24.1587 12.3808 24.1405 12.3628ZM24.8306 12.4526C24.8306 12.4346 24.8124 12.3987 24.7943 12.3987C24.7761 12.3987 24.7761 12.3987 24.7579 12.3808C24.7398 12.3808 24.7216 12.3808 24.7216 12.3808C24.7035 12.3808 24.6853 12.3987 24.6853 12.3987L24.6671 12.4167L24.649 12.4346C24.6308 12.4526 24.6127 12.4705 24.5945 12.4705C24.5763 12.4885 24.5763 12.5064 24.5945 12.5244C24.6127 12.5423 24.6308 12.5423 24.649 12.5423C24.6671 12.5423 24.6853 12.5244 24.7035 12.5244C24.7216 12.5244 24.7216 12.5244 24.7398 12.5244C24.7398 12.5244 24.7579 12.5244 24.7579 12.5064C24.7761 12.5064 24.7761 12.4885 24.7943 12.4885C24.8124 12.4885 24.8306 12.4705 24.8306 12.4526ZM26.3016 11.4117C26.3016 11.4296 26.3016 11.4296 26.3016 11.4476C26.3016 11.4476 26.3015 11.4655 26.3197 11.4655L26.3379 11.4835C26.356 11.4835 26.356 11.5014 26.3742 11.5014H26.3924C26.4105 11.5014 26.4287 11.4655 26.4287 11.4655C26.4287 11.4655 26.465 11.4476 26.4468 11.3758C26.4468 11.3758 26.4468 11.3579 26.4287 11.3579C26.4287 11.3579 26.4287 11.3579 26.4105 11.3579C26.4105 11.3579 26.3923 11.3579 26.3742 11.3579H26.356C26.356 11.3579 26.356 11.3579 26.3379 11.3579C26.3379 11.3579 26.3379 11.3579 26.3197 11.3579C26.3197 11.3579 26.3016 11.3579 26.3016 11.3758V11.3938L26.2834 11.4117C26.3015 11.3938 26.3016 11.4117 26.3016 11.4117ZM25.6296 11.9142C25.6478 11.9321 25.6659 11.9321 25.6841 11.9321C25.7204 11.9142 25.9747 11.8065 26.12 11.6629C26.1381 11.645 26.1199 11.5912 26.1018 11.5732C26.0836 11.5553 26.0473 11.5373 26.011 11.5553C25.9565 11.5732 25.6841 11.8245 25.6478 11.8424C25.6115 11.8604 25.6115 11.8962 25.6296 11.9142ZM25.0848 11.8424C25.103 11.8604 25.2483 11.7886 25.2664 11.7706C25.2846 11.7527 25.448 11.645 25.4662 11.6271C25.4662 11.6091 25.4662 11.5912 25.448 11.5912C25.4299 11.5912 25.4117 11.5912 25.3935 11.6091C25.3754 11.6091 25.1211 11.7347 25.0848 11.7706C25.0485 11.7886 25.0667 11.8245 25.0848 11.8424ZM25.1393 12.309C25.1575 12.309 25.1756 12.309 25.1756 12.309H25.1938C25.2119 12.309 25.2301 12.2911 25.2483 12.2911C25.2664 12.2911 25.2664 12.2731 25.2846 12.2731C25.2846 12.2731 25.3028 12.2731 25.3028 12.2552C25.3209 12.2552 25.3209 12.2372 25.3391 12.2372C25.3754 12.2193 25.3935 12.1654 25.3754 12.1295C25.3754 12.1116 25.3572 12.0937 25.3391 12.0757L25.3209 12.0578C25.3209 12.0578 25.3027 12.0578 25.2846 12.0578C25.2664 12.0578 25.2664 12.0578 25.2483 12.0578C25.212 12.0757 25.1756 12.0937 25.1393 12.1295C25.1211 12.1295 25.1211 12.1475 25.1211 12.1475C25.1211 12.1475 25.1211 12.1475 25.103 12.1654L25.0848 12.1834V12.2013C25.0485 12.2552 25.0848 12.309 25.1393 12.309ZM24.3584 11.7886C24.3766 11.8065 24.3947 11.8245 24.4311 11.8245C24.4492 11.8065 24.5582 11.7886 24.5763 11.7347C24.5945 11.7168 24.5763 11.6809 24.5582 11.6809C24.5582 11.6809 24.4855 11.6809 24.3947 11.7168C24.3766 11.7168 24.3766 11.7347 24.3584 11.7527C24.3584 11.7527 24.3584 11.7706 24.3584 11.7886ZM24.2858 12.2193C24.2495 12.2552 24.2858 12.327 24.3403 12.309C24.3947 12.2911 24.4492 12.2552 24.4855 12.2193C24.5219 12.1834 24.5763 12.1654 24.6127 12.1475C24.649 12.1295 24.7035 12.0937 24.7398 12.0757C24.7579 12.0578 24.7761 12.0578 24.8124 12.0398C24.8306 12.0219 24.8669 12.0219 24.8669 12.0039C24.8851 11.986 24.8669 11.9501 24.8487 11.9501C24.8306 11.9321 24.7943 11.9501 24.7761 11.968C24.7579 11.968 24.7216 11.986 24.7035 12.0039C24.649 12.0219 24.6127 12.0578 24.5582 12.0757C24.5219 12.0937 24.4674 12.1295 24.4311 12.1475C24.3766 12.1475 24.3221 12.1834 24.2858 12.2193ZM23.9044 12.0219C23.8863 12.0398 23.9044 12.0757 23.9407 12.0757C23.9589 12.0937 24.086 12.0219 24.1042 12.0219C24.1587 12.0039 24.195 11.986 24.2495 11.9501C24.2676 11.9321 24.2858 11.8962 24.2858 11.8783V11.8604C24.2676 11.8065 24.2313 11.8245 24.195 11.8424H24.1768C24.1587 11.8424 24.1405 11.8604 24.1223 11.8604C24.086 11.8783 24.086 11.8783 24.0315 11.9142C23.9952 11.9142 23.9226 11.986 23.9044 12.0219ZM23.7047 11.5194L23.7228 11.5373H23.741C23.7591 11.5194 23.7591 11.5194 23.7773 11.5014L23.7955 11.4835C23.7955 11.4835 23.7955 11.4835 23.8136 11.4835V11.4655H23.7955C23.7955 11.4655 23.7955 11.4655 23.7773 11.4655C23.7773 11.4655 23.7773 11.4655 23.7591 11.4655C23.7591 11.4655 23.741 11.4655 23.741 11.4835C23.7228 11.4835 23.7047 11.5014 23.7047 11.5014L23.6865 11.5194C23.7047 11.5014 23.7047 11.5014 23.7047 11.5194ZM23.632 11.8065C23.632 11.8245 23.6683 11.8424 23.6865 11.8424C23.741 11.8245 23.7955 11.8065 23.8318 11.7886C23.8499 11.7706 23.8863 11.7706 23.9044 11.7527C23.9226 11.7527 23.9226 11.7347 23.9226 11.7168C23.9226 11.7168 23.9226 11.7168 23.9407 11.6988C23.9407 11.6809 23.9589 11.6809 23.9589 11.6629C23.9589 11.645 23.9407 11.6271 23.9407 11.6271H23.9226C23.9226 11.6271 23.9044 11.6271 23.9044 11.645C23.8863 11.645 23.8681 11.6629 23.8681 11.6629C23.8318 11.6809 23.7955 11.6988 23.7773 11.7168C23.7591 11.7168 23.7591 11.7347 23.741 11.7347H23.7228C23.6502 11.7706 23.632 11.7886 23.632 11.8065ZM22.5969 11.5014C22.5969 11.5194 22.6151 11.5194 22.6332 11.5194C22.6514 11.5194 22.6695 11.5014 22.7059 11.5014C22.724 11.5014 22.7422 11.4835 22.7785 11.4835C22.8148 11.4655 22.833 11.4655 22.8511 11.4476C22.8511 11.4476 22.8693 11.4476 22.8693 11.4296C22.8693 11.4296 22.8875 11.4296 22.8875 11.4117C22.9056 11.4117 22.9056 11.3938 22.9056 11.3758C22.9056 11.3579 22.9056 11.3399 22.8875 11.322C22.8693 11.322 22.8693 11.304 22.8511 11.322H22.833C22.8148 11.322 22.8148 11.322 22.7967 11.3399C22.7785 11.3579 22.7603 11.3579 22.7422 11.3758C22.724 11.3758 22.724 11.3938 22.7059 11.3938C22.6877 11.4117 22.6514 11.4296 22.6332 11.4476C22.5969 11.4835 22.5969 11.4835 22.5969 11.5014ZM21.3257 13.7447L21.3438 13.7268C21.3983 13.6729 21.5618 13.4755 21.5799 13.4396C21.5799 13.4396 21.5799 13.4217 21.5981 13.4217C21.5073 13.4576 21.4165 13.5114 21.3438 13.5473C21.3257 13.5652 21.1259 13.8165 21.1078 13.8524C21.1622 13.8165 21.253 13.7806 21.3257 13.7447ZM21.0533 13.314C20.7082 13.4576 20.3995 13.7627 20.3632 13.7985C20.6174 13.6909 20.7264 13.6191 20.8535 13.5652C20.8717 13.5294 21.0533 13.314 21.0533 13.314ZM22.4698 15.4675C22.3971 15.5752 22.379 15.7008 22.3608 15.8265C22.3608 15.9521 22.379 16.1136 22.4335 16.2213C22.4516 16.2751 22.4879 16.329 22.5424 16.3648C22.7422 16.5084 22.9601 16.3828 23.0691 16.2751C23.287 16.0777 23.1962 15.8444 23.1235 15.8085C23.0509 15.7547 22.9964 15.7188 22.9783 15.647C22.9238 15.5034 22.9601 15.306 23.0146 15.1625C23.0146 15.1625 23.0146 15.1625 23.0146 15.1445C22.724 15.3419 22.7422 15.7188 22.724 15.7547C22.7059 15.7726 22.6877 15.7726 22.6695 15.7547C22.6332 15.7367 22.5243 15.5214 22.5606 15.3419C22.5243 15.3958 22.4879 15.4316 22.4698 15.4675ZM20.8535 14.319H20.8717C20.8898 14.301 20.9988 14.1754 21.0351 14.1216L21.0533 14.1036C20.5811 14.2113 20.2906 14.6061 20.2542 14.6241C20.3995 14.5523 20.7446 14.3549 20.8535 14.319ZM20.5993 14.0677C20.6356 13.996 20.7264 13.8883 20.7264 13.8703C20.6719 13.8883 20.5448 13.9421 20.4903 13.9601C20.454 13.996 20.2724 14.1934 20.2361 14.2472C20.3269 14.1934 20.5266 14.1036 20.5993 14.0677ZM24.0134 15.1983C24.0315 15.1445 24.0497 15.1086 24.086 15.0548C24.1587 14.965 24.2313 14.8753 24.3039 14.8035C24.6853 14.4805 24.8306 14.4805 24.9759 14.1575C25.0667 13.9242 24.994 13.7627 24.994 13.7627C24.9214 13.8165 24.8487 13.8703 24.7761 13.9062C24.7761 14.2293 24.3221 14.66 24.2313 14.7317C24.1405 14.8035 24.0497 14.8933 23.9589 14.965C23.9407 14.983 23.9226 14.9471 23.9226 14.9292C24.1223 14.66 24.1223 14.3549 24.1223 14.3369C24.1223 14.3369 23.8136 14.8574 23.3415 15.2163C23.1962 15.324 23.178 15.4317 23.1962 15.5214C23.2143 15.5932 23.2688 15.6291 23.3051 15.647C23.3415 15.647 23.3596 15.6649 23.3778 15.6829C23.4141 15.7367 23.4141 15.8085 23.4141 15.8803C23.5412 15.8803 23.6683 15.8444 23.7955 15.8085C23.8681 15.7906 24.0134 15.7188 24.0497 15.647C24.0679 15.5932 24.0315 15.5393 24.0315 15.5034C24.0134 15.4496 24.0134 15.3958 24.0134 15.3599C23.9952 15.306 23.9952 15.2522 24.0134 15.1983ZM21.7434 12.9371C21.6889 12.973 21.6344 12.991 21.5799 13.0269C21.5799 13.0269 21.5618 13.0269 21.5618 13.0448C21.3438 13.1884 21.2894 13.3499 21.2712 13.3858C21.3438 13.3499 21.4165 13.3319 21.471 13.2961C21.471 13.2602 21.7252 12.9371 21.7434 12.9371ZM12.6815 10.4964C12.8086 10.5862 12.9539 10.658 13.0992 10.7297C13.2444 10.8015 13.3897 10.8733 13.535 10.9272C14.0616 11.1425 14.5883 11.322 15.4055 11.3579C15.3329 11.2322 15.3147 11.1246 15.2965 11.0348C15.1149 11.0169 14.7881 10.9451 14.6428 10.9092C14.2614 10.8195 12.8268 10.3529 12.7723 9.5094C12.7723 9.45556 12.7904 9.38378 12.8086 9.32994C12.6996 9.312 12.5907 9.312 12.4817 9.38378C12.3546 9.45557 12.282 9.59913 12.2638 9.7427C12.2456 10.0657 12.4454 10.3349 12.6815 10.4964ZM12.6996 13.637C13.1355 13.637 13.5532 13.637 13.989 13.6011C14.4067 13.5652 15.805 13.3858 16.368 13.0807H16.3498C15.5871 13.2602 14.4067 13.3499 14.2432 13.314C14.2251 13.314 14.2251 13.2961 14.2432 13.2961C14.6065 13.2781 15.6961 13.0807 16.1682 12.8833C16.1682 12.8653 16.1501 12.8653 16.1501 12.8474C14.8244 13.0628 13.7166 13.0089 13.5713 12.991C13.2808 12.973 11.7735 12.973 11.0652 12.632C11.0289 12.6141 10.9926 12.5961 10.9744 12.5961C10.9744 12.7577 11.0108 12.9192 11.1016 13.0628C11.2105 13.2243 11.3558 13.3499 11.5374 13.4576C11.8824 13.637 12.3001 13.637 12.6996 13.637ZM15.4418 11.986C15.4418 11.968 15.4418 11.9501 15.4418 11.9321C15.0968 11.8962 14.1706 11.8245 13.8982 11.6809C13.88 11.6629 13.88 11.6629 13.8982 11.6809C14.4793 11.7886 15.1876 11.7347 15.4781 11.7168V11.6988C14.6246 11.6629 12.1912 11.1066 12.1004 9.90422C11.9369 9.88627 11.7553 9.88627 11.61 9.95806C11.0652 10.2273 11.2832 10.7656 11.4284 10.981C12.0822 11.986 14.7699 12.0937 15.4418 11.986ZM12.282 19.0568C12.064 18.6261 11.9006 18.1774 11.7372 17.7108C11.5737 17.2263 11.4648 16.7058 11.4284 16.2033C11.3921 15.7008 11.4284 15.1804 11.5374 14.6779C11.5919 14.4267 11.6464 14.1934 11.7372 13.9601C11.7735 13.978 12.0459 14.0857 12.064 14.0857C12.064 14.0857 12.0822 14.0857 12.0822 14.1036C12.064 14.1216 11.7553 14.3549 11.6645 14.642C11.6645 14.66 11.6827 14.6959 11.7008 14.6779C11.9551 14.4087 12.2275 14.2472 12.2456 14.2472C12.2456 14.2472 12.2456 14.2472 12.2638 14.2651C12.282 14.301 12.3183 14.319 12.3546 14.3369C12.3364 14.3549 12.3001 14.3908 12.3001 14.3908C12.3001 14.3908 11.7553 14.8394 11.5556 15.2342C11.5374 15.2701 11.5737 15.2881 11.61 15.2701C11.7008 15.1804 11.7735 15.0907 11.8643 15.0009C11.9551 14.9112 12.0459 14.8394 12.1367 14.7676C12.3001 14.6241 12.4999 14.4984 12.5544 14.4626C12.5725 14.4446 12.6088 14.4267 12.627 14.4267C12.627 14.4446 12.6088 14.4626 12.6088 14.4626C12.5907 14.5164 12.3546 14.7676 12.1912 14.965C12.1367 15.0189 12.1004 15.0727 12.064 15.1445C12.0459 15.1804 12.0822 15.2163 12.1185 15.1983C12.173 15.1625 12.4636 14.9471 12.5362 14.9112C12.6996 14.7856 13.0084 14.642 13.0084 14.642C12.9539 14.7138 12.4636 15.2881 12.3728 15.4137C12.3364 15.4675 12.282 15.5214 12.2456 15.5932C12.2093 15.647 12.1548 15.7188 12.1367 15.7906C12.1367 15.8085 12.1548 15.8444 12.1912 15.8265C12.3183 15.7547 12.4091 15.6291 12.4999 15.5214C13.0084 15.0009 13.2989 14.9292 13.3534 14.8933C13.3716 14.8753 13.4079 14.8753 13.426 14.8574L13.4079 14.8753C13.3534 14.9471 12.9539 15.4137 12.8449 15.5214L12.8268 15.5393C12.7723 15.5932 12.7178 15.6649 12.6633 15.7188C12.6633 15.7188 12.6633 15.7367 12.6452 15.7367C12.5725 15.8085 12.518 15.8803 12.4454 15.9521C12.3728 16.0239 12.3183 16.0957 12.2456 16.1854C12.1912 16.2572 12.1004 16.329 12.1004 16.4187C12.1004 16.4366 12.1185 16.4546 12.1367 16.4546C12.2093 16.4366 12.282 16.329 12.3364 16.2751C12.4091 16.2033 12.4817 16.1316 12.5362 16.0598C12.6633 15.9162 12.8086 15.7906 12.9357 15.647C13.0447 15.5573 13.1536 15.4496 13.2626 15.3599C13.3897 15.2522 13.535 15.1804 13.6621 15.1086L13.6803 15.0907C13.644 15.1445 13.5895 15.2163 13.5532 15.2701C13.4987 15.3419 12.4999 16.4366 12.4454 16.4905C12.3546 16.5802 12.0096 16.975 12.0096 17.1006C12.0096 17.1545 12.064 17.1724 12.1004 17.1365C12.1367 17.1006 12.173 17.0468 12.2093 16.993C12.2456 16.9391 12.282 16.9032 12.3183 16.8494C12.3364 16.8135 12.3728 16.7776 12.3909 16.7417C12.3909 16.7417 12.4091 16.7417 12.4091 16.7238C12.4636 16.652 12.518 16.5802 12.5725 16.5264C12.627 16.4546 12.6815 16.4007 12.7541 16.3469C12.8812 16.2213 13.9164 15.3958 13.989 15.3599C13.989 15.3599 14.0072 15.3599 14.0072 15.3419C13.9708 15.3778 13.9527 15.4137 13.9164 15.4496C13.8619 15.5214 13.8074 15.5932 13.7529 15.6649C13.7348 15.6829 13.7166 15.7008 13.6984 15.7188C13.5713 15.8444 13.4624 15.988 13.3534 16.1136C13.3171 16.1674 13.2626 16.2213 13.2263 16.2572C12.972 16.4905 12.1912 17.4596 12.173 17.5672C12.173 17.6031 12.1912 17.6211 12.2275 17.6031C12.3001 17.5493 12.3546 17.4596 12.4091 17.3878C12.4636 17.2981 12.5362 17.2263 12.6088 17.1545C12.7178 17.0289 12.8268 16.9032 12.9357 16.7597C12.9539 16.7417 12.9902 16.7058 13.0084 16.6879C13.0265 16.6699 13.0447 16.634 13.081 16.6161C13.3534 16.3469 13.644 16.1136 13.9527 15.8803C14.0435 15.8085 14.1524 15.7367 14.2614 15.6649C14.2251 15.7008 14.2069 15.7547 14.1706 15.7906C14.098 15.8803 14.0435 15.988 13.9708 16.0777C13.9708 16.0957 13.9527 16.0957 13.9527 16.1136C13.9164 16.1495 13.88 16.1674 13.8437 16.2033C13.6984 16.329 13.5713 16.4725 13.4442 16.6161C13.3171 16.7597 13.19 16.9032 13.0628 17.0647C12.9902 17.1545 12.9176 17.2442 12.8631 17.3339C12.8268 17.3878 12.7723 17.4596 12.736 17.5314C12.6088 17.6929 12.518 17.8544 12.4272 18.0338C12.4091 18.0697 12.4636 18.0877 12.4817 18.0518C12.6088 17.8903 12.7541 17.7288 12.8994 17.5672C13.0447 17.4057 14.1525 16.4007 14.3159 16.2751C14.3885 16.2213 14.4793 16.1674 14.552 16.1136C14.5156 16.1674 14.4793 16.2213 14.443 16.2751C14.3704 16.3648 13.644 17.1545 13.426 17.4237C13.2808 17.5852 13.1355 17.7647 12.9902 17.9262C12.8449 18.1056 12.6996 18.303 12.518 18.4646C12.4999 18.4825 12.518 18.5004 12.5362 18.5004C12.6088 18.4466 12.6996 18.3928 12.7723 18.321C12.8449 18.2492 12.9176 18.1774 12.9902 18.1056C13.081 18.0159 13.1536 17.9262 13.2263 17.8364C13.2989 17.7826 13.3534 17.7108 13.4079 17.639C13.535 17.5134 14.4067 16.7956 14.4793 16.7597L14.4612 16.7776C14.3159 16.9571 13.6258 17.8364 13.3897 18.0877C13.2989 18.1954 13.19 18.303 13.0992 18.4107C12.9902 18.5363 12.8812 18.662 12.7723 18.7876C12.7541 18.8055 12.7723 18.8235 12.7904 18.8055C12.8994 18.7158 13.0084 18.6081 13.0992 18.5184C13.19 18.4287 13.2989 18.321 13.3897 18.2492C13.5713 18.0877 13.7711 17.9262 13.9527 17.7647C14.1343 17.6031 14.3341 17.4596 14.5338 17.2981C14.7154 17.1545 14.9152 16.993 15.1149 16.8853C15.3692 16.7417 15.6961 16.9212 15.8232 17.0289C15.8958 17.0827 16.0956 17.2981 16.1137 17.3698C16.1682 17.5493 15.9503 17.6211 15.9321 17.6211C15.46 17.8723 15.0241 18.1595 14.6064 18.5004C14.2069 18.8414 13.8437 19.2183 13.4805 19.6131C13.3352 19.7746 13.19 19.9361 13.0628 20.1156C12.7541 19.8823 12.4817 19.4695 12.282 19.0568ZM12.0277 16.5264C12.0277 16.5084 12.0096 16.5084 12.0096 16.4905C11.9914 16.4905 11.9914 16.4725 11.9732 16.4725C11.9551 16.4725 11.9369 16.4725 11.9369 16.4905C11.9188 16.5084 11.9188 16.5084 11.9006 16.5264C11.9006 16.5443 11.8824 16.5443 11.8824 16.5623C11.8824 16.5802 11.8643 16.5982 11.8643 16.5982V16.6161V16.634V16.652C11.8643 16.6699 11.8824 16.6699 11.9006 16.6699H11.9188C11.9369 16.6699 11.9369 16.652 11.9551 16.634C11.9732 16.6161 11.9732 16.6161 11.9914 16.5982C11.9914 16.5982 11.9914 16.5802 12.0096 16.5802C12.0277 16.5623 12.0277 16.5623 12.0277 16.5443C12.0277 16.5623 12.0459 16.5443 12.0277 16.5264ZM12.0096 15.8444C11.9914 15.8444 11.9732 15.8444 11.9732 15.8624C11.9551 15.8803 11.9551 15.8803 11.9551 15.8982C11.9551 15.9162 11.9369 15.9162 11.9369 15.9341C11.9369 15.9521 11.9369 15.9521 11.9188 15.97C11.9188 15.988 11.9188 15.988 11.9188 16.0059V16.0239L11.9369 16.0418H11.9551C11.9551 16.0418 11.9732 16.0418 11.9732 16.0239C11.9732 16.0239 11.9732 16.0239 11.9914 16.0239C11.9914 16.0239 12.0096 16.0239 12.0096 16.0059L12.0277 15.988L12.0459 15.97C12.064 15.9521 12.064 15.9521 12.064 15.9341V15.9162V15.8982C12.064 15.8803 12.0459 15.8803 12.0459 15.8624C12.0459 15.8444 12.0277 15.8444 12.0096 15.8444ZM11.8461 15.3778C11.8461 15.3958 11.8643 15.3958 11.8824 15.3958C11.9006 15.3958 11.9006 15.3958 11.9188 15.3778C11.9369 15.3599 11.9369 15.3599 11.9551 15.3419C11.9551 15.3419 11.9551 15.3419 11.9551 15.3599C11.9732 15.3419 11.9914 15.324 12.0096 15.306C12.0096 15.2881 12.0277 15.2881 12.0277 15.2701L12.0459 15.2522C12.0459 15.2342 12.0459 15.2342 12.0459 15.2163C12.0459 15.1804 12.0277 15.1625 11.9914 15.1625C11.9914 15.1625 11.9914 15.1625 11.9732 15.1625C11.9551 15.1625 11.9551 15.1625 11.9369 15.1804C11.9188 15.1804 11.9188 15.1983 11.9006 15.1983C11.8824 15.2163 11.8643 15.2342 11.8643 15.2522C11.8461 15.2701 11.8461 15.2881 11.8461 15.306C11.828 15.324 11.828 15.3599 11.8461 15.3778ZM11.5919 15.8803C11.6464 15.8265 11.6827 15.7547 11.719 15.7008C11.7372 15.665 11.7553 15.647 11.7735 15.6111C11.7916 15.5932 11.7916 15.5752 11.8098 15.5752C11.8098 15.5573 11.828 15.5573 11.828 15.5393C11.828 15.5214 11.828 15.5214 11.828 15.5214C11.828 15.4855 11.7916 15.4675 11.7735 15.4855C11.7553 15.4855 11.7372 15.5034 11.7372 15.5034C11.719 15.5393 11.7008 15.5752 11.6827 15.5932C11.6645 15.6291 11.6464 15.647 11.6282 15.6829C11.5919 15.7367 11.5556 15.8085 11.5192 15.8624C11.5192 15.8803 11.5737 15.8983 11.5919 15.8803ZM11.6645 16.4187C11.7008 16.3649 11.7553 16.311 11.7916 16.2572C11.828 16.2033 11.8824 16.1495 11.9188 16.0957C11.9369 16.0777 11.9188 16.0418 11.9006 16.0418C11.8824 16.0239 11.8643 16.0239 11.8461 16.0418C11.7916 16.0777 11.7553 16.1495 11.7008 16.2033C11.6827 16.2213 11.6645 16.2572 11.6464 16.2931C11.6464 16.311 11.6282 16.329 11.6282 16.3469C11.6282 16.3648 11.61 16.3828 11.61 16.4007C11.5919 16.4366 11.6282 16.4546 11.6645 16.4187ZM11.7553 16.993C11.7735 16.975 11.7735 16.975 11.7735 16.9571L11.7916 16.9391C11.8098 16.9212 11.8098 16.9032 11.828 16.8853L11.8461 16.8673C11.8461 16.8673 11.8461 16.8494 11.8643 16.8494C11.8643 16.8494 11.8643 16.8494 11.8643 16.8315C11.8643 16.8135 11.8643 16.8135 11.8643 16.7956V16.7776C11.8643 16.7597 11.828 16.7417 11.8098 16.7417H11.7916C11.7735 16.7417 11.7735 16.7597 11.7553 16.7597C11.7372 16.7956 11.719 16.8315 11.7008 16.8673C11.7008 16.8853 11.6827 16.9032 11.6827 16.9212C11.6827 16.9391 11.6645 16.9571 11.6645 16.975C11.6645 16.993 11.6645 16.993 11.6827 17.0109C11.7008 17.0109 11.7008 17.0109 11.719 17.0109C11.7372 17.0289 11.7372 17.0109 11.7553 16.993ZM11.9369 17.3519C11.9551 17.3339 11.9551 17.2981 11.9551 17.2801C11.9551 17.2622 11.9369 17.2442 11.9006 17.2622C11.8643 17.2622 11.8461 17.2981 11.828 17.316C11.8098 17.3339 11.8098 17.3519 11.7916 17.3698C11.7735 17.3878 11.7735 17.4237 11.7553 17.4416C11.7553 17.4775 11.7372 17.4955 11.7553 17.5314C11.7735 17.5493 11.8098 17.5493 11.828 17.5314C11.828 17.5134 11.8461 17.5134 11.8461 17.4955C11.8643 17.4775 11.8643 17.4596 11.8824 17.4416C11.9188 17.3878 11.9188 17.3698 11.9369 17.3519ZM12.1367 17.8544C12.1548 17.8364 12.1548 17.8185 12.173 17.8005C12.173 17.8005 12.173 17.7826 12.1912 17.7826C12.1912 17.7647 12.1912 17.7647 12.1912 17.7467V17.7288C12.1912 17.7108 12.173 17.6929 12.1548 17.6929H12.1367H12.1185C12.1004 17.6929 12.064 17.7288 12.064 17.7467C12.0459 17.7647 12.0277 17.7826 12.0096 17.8185C11.9732 17.8723 11.9369 17.9621 11.9914 18.0159C12.0277 18.0518 12.0822 18.0338 12.1004 17.998V17.98V17.9621C12.1004 17.9082 12.1185 17.8903 12.1367 17.8544ZM12.282 18.321C12.282 18.303 12.3001 18.303 12.3001 18.303L12.3183 18.2851C12.3183 18.2851 12.3183 18.2851 12.3364 18.2671V18.2492C12.3364 18.2492 12.3364 18.2313 12.3546 18.2313L12.3728 18.2133C12.3728 18.1954 12.3728 18.1774 12.3546 18.1774C12.3364 18.1595 12.3364 18.1595 12.3183 18.1595C12.3001 18.1595 12.3001 18.1595 12.282 18.1774C12.282 18.1774 12.282 18.1774 12.2638 18.1774C12.2638 18.1774 12.2638 18.1774 12.2456 18.1774L12.2275 18.1954C12.2275 18.1954 12.2275 18.1954 12.2093 18.2133C12.1912 18.2313 12.1912 18.2313 12.1912 18.2492C12.173 18.2671 12.173 18.2671 12.1548 18.2851V18.303C12.1548 18.321 12.1367 18.3389 12.1548 18.3569C12.1548 18.3748 12.1548 18.3748 12.173 18.3748L12.1912 18.3928C12.2093 18.3928 12.2093 18.3928 12.2275 18.3748L12.2456 18.3569C12.2638 18.3389 12.2638 18.3389 12.282 18.321ZM12.4636 18.5902C12.4454 18.5722 12.4454 18.5722 12.4272 18.5722C12.4272 18.5722 12.4272 18.5722 12.4091 18.5722C12.3909 18.5722 12.3909 18.5722 12.3728 18.5902L12.3546 18.6081C12.3364 18.6261 12.3364 18.6261 12.3183 18.644C12.3183 18.662 12.3001 18.662 12.3001 18.6799C12.3001 18.6799 12.3001 18.6979 12.282 18.6979C12.282 18.7158 12.282 18.7158 12.282 18.7337L12.3001 18.7517H12.3183H12.3364C12.3546 18.7517 12.3546 18.7517 12.3546 18.7337C12.3546 18.7337 12.3546 18.7337 12.3728 18.7158C12.3909 18.7158 12.3909 18.6979 12.3909 18.6979L12.4091 18.6799C12.4091 18.6799 12.4091 18.6799 12.4272 18.662C12.4272 18.662 12.4454 18.644 12.4454 18.6261C12.4817 18.6261 12.4817 18.6081 12.4636 18.5902ZM12.6815 19.0209C12.6815 19.0029 12.6633 19.0029 12.6633 18.985C12.6633 18.985 12.6452 18.967 12.627 18.967C12.6088 18.967 12.6088 18.967 12.5907 18.967C12.5907 18.967 12.5725 18.967 12.5725 18.985L12.5544 19.0029C12.5544 19.0029 12.5544 19.0209 12.5362 19.0209C12.5362 19.0209 12.5362 19.0388 12.518 19.0388C12.518 19.0388 12.518 19.0568 12.4999 19.0568C12.4999 19.0568 12.4999 19.0568 12.4999 19.0747C12.4999 19.0747 12.4999 19.0747 12.4999 19.0927C12.4999 19.0927 12.4999 19.1106 12.518 19.1106C12.5362 19.1286 12.5544 19.1286 12.5725 19.1106L12.5907 19.0927L12.6088 19.0747C12.6088 19.0747 12.6088 19.0747 12.627 19.0568L12.6452 19.0388C12.6452 19.0209 12.6633 19.0209 12.6633 19.0029C12.6815 19.0388 12.6815 19.0388 12.6815 19.0209ZM16.0411 12.5782C16.0229 12.5782 16.0048 12.5782 15.9866 12.5782C15.8413 12.5603 14.5883 12.65 13.9527 12.5423C13.9345 12.5423 13.9345 12.5064 13.9527 12.5064C14.0253 12.5064 14.9333 12.5064 15.5871 12.2911C15.5871 12.2731 15.5689 12.2731 15.5689 12.2552C14.9697 12.2911 12.4817 12.4167 11.3558 11.2143C11.2287 11.0887 11.156 10.9092 11.1197 10.7297C10.92 10.8195 10.7383 10.9451 10.6294 11.1425C10.5204 11.3399 10.4841 11.5553 10.5386 11.7706C10.5931 11.9501 10.702 12.1475 10.8655 12.2552C11.5374 12.6679 12.8086 12.7038 13.081 12.7218C13.3352 12.7397 14.7881 12.9012 16.0411 12.5782ZM13.4442 22.4845C13.2444 22.3409 12.518 21.5513 13.1536 20.6181C13.1355 20.9052 13.1718 21.0668 13.2081 21.1385C13.2263 21.2103 13.2626 21.3001 13.3171 21.3359C13.3534 21.3539 13.3897 21.3359 13.3897 21.3001C13.3171 20.8514 13.426 20.6002 13.426 20.5822C13.4624 20.9411 13.6258 21.2642 13.8619 21.5513C13.7892 21.6231 13.7348 21.7128 13.6803 21.8025C13.6076 21.9282 13.5532 22.0538 13.4987 22.1974C13.4805 22.2871 13.4624 22.3948 13.4442 22.4845ZM13.4442 21.6949C13.4624 21.6769 13.4624 21.6769 13.4805 21.659C13.4805 21.641 13.4987 21.6231 13.4987 21.6231C13.4987 21.6051 13.4987 21.6051 13.4987 21.5872V21.5692V21.5513V21.5334C13.4987 21.5334 13.4987 21.5334 13.4987 21.5154C13.4987 21.4975 13.4805 21.4975 13.4805 21.4975C13.4805 21.4975 13.4624 21.4975 13.4624 21.4795H13.4442C13.426 21.4795 13.426 21.4795 13.4079 21.4795C13.3897 21.4795 13.3716 21.4795 13.3716 21.4975L13.3534 21.5154C13.3534 21.5334 13.3534 21.5334 13.3352 21.5513V21.5692C13.3352 21.5872 13.3352 21.5872 13.3352 21.5872C13.3352 21.6051 13.3352 21.6051 13.3352 21.6231C13.3352 21.6231 13.3352 21.6231 13.3352 21.641C13.3352 21.659 13.3352 21.659 13.3534 21.6769C13.3716 21.7128 13.4079 21.7308 13.426 21.7128C13.426 21.7128 13.426 21.7128 13.4442 21.6949ZM29.9336 20.995C29.7883 21.2821 29.4614 21.3718 29.1527 21.3898C28.9711 21.3898 28.7895 21.3898 28.6079 21.3898C28.5352 21.3898 28.4626 21.4077 28.39 21.4257C28.3718 21.4436 28.3536 21.4616 28.3355 21.4616C28.2992 21.4975 28.2628 21.5334 28.2447 21.5872C28.2084 21.7128 28.2447 21.8743 28.281 22C28.3173 22.1256 28.39 22.2691 28.3536 22.3948C28.3355 22.4666 28.2992 22.5204 28.2265 22.5563C28.2084 22.5383 28.172 22.5024 28.1357 22.4845C28.0812 22.4486 28.0268 22.4307 27.9723 22.4307C27.8996 22.4307 27.8452 22.4666 27.7725 22.4845C27.6272 22.5383 27.4456 22.646 27.3004 22.646C27.1188 22.646 27.1006 22.5563 27.0643 22.5383C27.028 22.5024 26.9735 22.5024 26.9372 22.5024C26.8827 22.5024 26.8282 22.5383 26.8282 22.5922C26.7737 22.8255 27.0098 22.9332 27.1188 22.9332C27.373 22.9332 27.5909 22.7178 27.7907 22.6999C28.0812 22.6819 28.1176 22.9511 28.1176 23.0229C28.1176 23.1485 28.0449 23.2741 27.936 23.328C27.8815 23.3459 27.8452 23.3639 27.7907 23.3818C27.7544 23.3998 27.718 23.3998 27.6817 23.4177C27.6454 23.4357 27.6091 23.4715 27.5909 23.5074C27.5728 23.5613 27.5183 23.7587 27.6454 23.9202C27.6817 23.9561 27.8452 24.0458 27.8815 24.0817C28.0449 24.2073 28.1357 24.5304 28.1176 24.8175C28.0812 25.643 27.373 25.9481 27.2277 26.0199C26.7011 26.2891 25.6478 26.5583 24.2131 26.6121C24.2131 26.648 24.2131 26.666 24.2131 26.7019C24.2313 26.8095 24.2313 26.9352 24.2313 27.0428C24.2313 27.2761 24.2313 27.5094 24.2131 27.7427C24.1587 28.1017 24.0134 28.4426 23.8681 28.7836C23.7955 28.9451 23.7228 29.1066 23.6683 29.2861C23.6502 29.3758 23.6139 29.4476 23.5957 29.5374C23.5775 29.6271 23.5594 29.6989 23.5594 29.7707C23.5412 29.9681 23.5594 30.1655 23.5957 30.3449C23.6139 30.4526 23.6502 30.5423 23.6683 30.65C23.6865 30.7577 23.7047 30.8654 23.7228 30.973C23.8136 31.3858 23.9226 31.7986 24.0134 32.2113C24.0134 32.2293 24.0134 32.2472 24.0134 32.2652C24.0315 32.2831 24.0497 32.3011 24.0497 32.337C24.0679 32.4267 24.0134 32.5164 23.9226 32.5523C23.7955 32.5882 23.6683 32.6062 23.5412 32.5882C22.5424 32.5344 21.6526 31.996 20.7809 31.5832C19.8729 31.1705 18.9104 30.9013 17.9298 30.6859C16.9491 30.4706 15.9503 30.3449 14.9515 30.2552C14.6973 30.2373 14.4612 30.2193 14.2069 30.1834C13.989 30.1655 13.7711 30.1655 13.5713 30.0578C13.4805 30.004 13.3897 29.9322 13.3534 29.8245C13.2989 29.6989 13.3352 29.5553 13.3897 29.4297C13.426 29.3579 13.4624 29.3041 13.4987 29.2323C13.7711 29.0887 14.0435 28.9451 14.334 28.8375C14.8788 28.64 15.4963 28.5862 15.5871 28.5683C15.7142 28.5683 15.8232 28.5683 15.9503 28.5503C15.9866 28.5503 16.0048 28.5503 16.0411 28.5503C16.0593 28.4785 16.0593 28.4067 16.0774 28.335C16.0593 28.335 16.0411 28.335 16.0229 28.335C15.914 28.335 15.805 28.335 15.6961 28.335C15.5326 28.3529 15.3692 28.3709 15.2057 28.3888C15.1876 28.3888 14.9878 28.2273 14.6064 28.3529C14.4975 28.3888 14.3885 28.4606 14.2977 28.5324C14.2432 28.5683 14.0617 28.7657 13.7711 28.9092C13.7166 28.9272 13.6803 28.9631 13.644 28.981C13.6803 28.9092 13.7166 28.8554 13.7529 28.7836C13.7711 28.7477 13.7892 28.7298 13.8074 28.6939C13.8256 28.658 13.8437 28.6042 13.8619 28.5683C13.8982 28.5503 13.9527 28.5503 13.989 28.5324C14.098 28.4965 14.2069 28.4426 14.3159 28.4067C14.5338 28.317 14.7336 28.2273 14.9515 28.1734C15.7142 28.0299 16.1137 28.0837 16.1501 28.0837C16.1501 28.0478 16.1682 28.0299 16.1682 27.994C16.1682 27.976 16.1682 27.976 16.1682 27.9581C16.1319 27.9581 15.8958 27.8863 15.5689 27.9043C15.5145 27.9043 15.46 27.9043 15.4055 27.9043C15.3329 27.8145 15.2057 27.7966 15.0968 27.7966C14.9878 27.7966 14.8789 27.8145 14.7699 27.8504C14.6609 27.8863 14.5701 27.9581 14.4793 28.0299C14.4067 28.0837 14.334 28.1376 14.2796 28.1914C14.1706 28.2273 14.0617 28.2811 13.9527 28.317H13.9345C13.9527 28.2632 13.989 28.1914 14.0072 28.1376C14.0435 28.0658 14.0616 27.994 14.098 27.9222C14.4067 27.7786 14.8789 27.671 15.0605 27.6351C15.2784 27.5992 15.5145 27.5812 15.7324 27.5633C15.8413 27.5633 16.1319 27.5453 16.259 27.5633C16.2772 27.5094 16.2772 27.4556 16.2953 27.4197C16.259 27.4197 16.2227 27.4018 16.1864 27.4018C16.0956 27.3838 16.0048 27.3838 15.914 27.3838C15.8232 27.3838 15.7142 27.3838 15.6234 27.3838C15.6053 27.3659 15.5326 27.2582 15.351 27.2223C15.2421 27.1864 15.0968 27.1864 14.9878 27.2402C14.8789 27.2941 14.788 27.3659 14.6972 27.4377C14.6428 27.4735 14.6065 27.5274 14.552 27.5633C14.5338 27.5812 14.5338 27.5992 14.5156 27.5992C14.4248 27.6351 14.3522 27.653 14.2614 27.6889C14.2251 27.7068 14.2069 27.7068 14.1706 27.7248C14.2251 27.5812 14.2796 27.4556 14.3159 27.312C14.9878 27.0069 15.7687 26.9711 15.8595 26.989C15.9685 26.989 16.0774 27.0069 16.1864 27.0249C16.2409 27.0428 16.2953 27.0608 16.3498 27.0608C16.3498 27.0069 16.368 26.9352 16.368 26.8813C16.3498 26.8813 16.3317 26.8634 16.3135 26.8634C16.2227 26.8454 16.1319 26.8275 16.0411 26.8095C15.8777 26.7916 15.7142 26.7916 15.5689 26.8095C15.5508 26.7916 15.5326 26.7736 15.5145 26.7736C15.4781 26.7377 15.4237 26.7198 15.3692 26.7198C15.2602 26.7019 15.1513 26.7019 15.0423 26.7198C14.9515 26.7557 14.8607 26.8095 14.7881 26.8634C14.7517 26.8993 14.7154 26.9172 14.6791 26.9531C14.6428 26.989 14.552 27.0608 14.443 27.0967C14.4248 27.0967 14.4067 27.1146 14.3885 27.1326C14.4067 27.0787 14.4248 27.0428 14.4248 26.989C14.443 26.9172 14.4612 26.8634 14.4793 26.7916C14.4975 26.7916 14.5156 26.7916 14.5156 26.7736C14.6246 26.7377 14.7154 26.7019 14.8244 26.666C15.006 26.5942 15.2057 26.5403 15.3873 26.4865C15.5871 26.4506 15.7687 26.4327 15.9685 26.4147C16.0774 26.4147 16.1682 26.4147 16.2772 26.4327C16.3135 26.4327 16.3498 26.4327 16.3861 26.4506C16.3861 26.3968 16.3861 26.3429 16.4043 26.2711C16.368 26.2711 16.3317 26.2532 16.3135 26.2532C16.2045 26.2353 16.1137 26.2353 16.0048 26.2353C15.8777 26.2353 15.7505 26.2532 15.6234 26.2532C15.5689 26.1635 15.4418 26.1455 15.351 26.1455C15.2421 26.1455 15.1513 26.1814 15.0605 26.2173C14.9878 26.2532 14.897 26.307 14.8425 26.3609C14.8062 26.3968 14.7881 26.4147 14.7517 26.4506C14.6791 26.5224 14.5701 26.5583 14.5156 26.5762C14.552 26.4506 14.5701 26.325 14.5883 26.1994C14.8789 26.1635 15.1694 26.0917 15.46 26.0199C15.6416 25.9661 15.8413 25.9302 16.0411 25.9122C16.1319 25.8943 16.2409 25.8943 16.3317 25.8943C16.368 25.8943 16.3861 25.8943 16.4225 25.8943C16.4225 25.8225 16.4406 25.7507 16.4406 25.6789C16.4225 25.6789 16.4043 25.6789 16.3861 25.6789C16.2772 25.661 16.1864 25.6789 16.0774 25.6789C15.9685 25.6789 15.8595 25.6969 15.7324 25.7328C15.7142 25.7148 15.6961 25.7148 15.6779 25.6969C15.6416 25.6789 15.2965 25.6251 14.9878 25.8943C14.9515 25.9302 14.9152 25.9302 14.8788 25.9481C14.8062 25.9661 14.7154 26.002 14.6428 26.0199C14.6609 25.9481 14.6609 25.8584 14.6791 25.7866C14.6791 25.7507 14.6791 25.7328 14.6972 25.6969C15.2965 25.4815 16.0048 25.4097 16.0956 25.4097C16.1864 25.4097 16.2953 25.4097 16.3861 25.4097C16.4225 25.4097 16.4406 25.4097 16.4769 25.4097C16.4769 25.3559 16.4769 25.32 16.4951 25.2662C16.4588 25.2662 16.4406 25.2662 16.4225 25.2662C16.3135 25.2662 16.2045 25.2662 16.1137 25.2662C16.0229 25.2662 15.9503 25.2841 15.8595 25.2841C15.8232 25.1944 15.6961 25.1585 15.6053 25.1764C15.5145 25.1764 15.4055 25.2123 15.3329 25.2482C15.2602 25.2841 15.2057 25.3559 15.1331 25.3918C15.1149 25.4097 15.0968 25.4277 15.0605 25.4277C14.9878 25.4456 14.9333 25.4636 14.8607 25.4815C14.8244 25.4995 14.7699 25.5174 14.7336 25.5354C14.7517 25.4277 14.7517 25.32 14.7699 25.1944C15.5871 24.9431 16.0411 24.9072 16.1682 24.9072C16.259 24.9072 16.3498 24.9072 16.4406 24.9072C16.4769 24.9072 16.5133 24.9072 16.5496 24.9072C16.5496 24.8534 16.5677 24.7996 16.5677 24.7457C16.5314 24.7457 16.4951 24.7457 16.4588 24.7457C16.368 24.7457 16.2772 24.7457 16.1864 24.7457C16.0956 24.7457 16.0048 24.7637 15.9321 24.7816C15.8958 24.6919 15.7505 24.6919 15.6597 24.6919C15.5871 24.7098 15.4963 24.7278 15.4237 24.7637C15.351 24.7996 15.2965 24.8355 15.2239 24.8893C15.1876 24.9072 15.1513 24.9431 15.1149 24.979C15.006 25.0149 14.897 25.0329 14.7881 25.0867C14.8062 24.979 14.8062 24.8893 14.8244 24.7816C14.8425 24.7816 15.6416 24.4765 16.259 24.4586C16.3498 24.4586 16.4588 24.4765 16.5496 24.4945C16.5677 24.4945 16.5859 24.4945 16.6041 24.5124C16.6041 24.4765 16.6222 24.4406 16.6222 24.4047C16.6041 24.4047 16.6041 24.4047 16.5859 24.3868C16.4769 24.3689 16.3861 24.3509 16.2772 24.3509C16.1682 24.3509 16.0593 24.3509 15.9685 24.3689C15.9685 24.3509 15.9685 24.333 15.9685 24.333C15.9503 24.2612 15.8958 24.2253 15.8413 24.2073C15.7687 24.2073 15.6779 24.2253 15.6053 24.2612C15.5326 24.2971 15.4418 24.333 15.3692 24.3868C15.3329 24.4047 15.2965 24.4406 15.2602 24.4765C15.2421 24.5124 15.2239 24.5304 15.1876 24.5483L15.1694 24.5663C15.1331 24.5842 15.0968 24.6022 15.0423 24.6201C14.9697 24.656 14.897 24.6739 14.8425 24.7098C14.8425 24.6739 14.8425 24.656 14.8425 24.6201C14.8425 24.5483 14.8607 24.4765 14.8607 24.3868C14.897 24.3689 14.9152 24.3689 14.9515 24.3509C15.0241 24.315 15.0968 24.2971 15.1694 24.2791C15.8595 23.974 16.5314 24.0099 16.5859 24.0099C16.6222 24.0099 16.6585 24.0099 16.6767 24.0099C16.6767 23.974 16.6767 23.9381 16.6949 23.9023V23.8843C16.6585 23.8664 16.6404 23.8664 16.6041 23.8664C16.5496 23.8484 16.5133 23.8484 16.4588 23.8484C16.368 23.8305 16.259 23.8305 16.1682 23.8305C16.1501 23.8305 16.1319 23.8305 16.1319 23.8305C16.1319 23.8125 16.1137 23.7946 16.1137 23.7766C16.0956 23.7587 16.0774 23.7407 16.0411 23.7228H16.0229C15.9866 23.7048 15.9503 23.7048 15.9321 23.7048C15.914 23.7048 15.8958 23.7048 15.8595 23.7048C15.8232 23.7048 15.805 23.7048 15.7687 23.7048C15.7687 23.7048 15.7687 23.7048 15.7505 23.7048L15.7324 23.6869C15.7324 23.669 15.7324 23.651 15.7324 23.6331C15.7505 23.6331 15.7687 23.6331 15.7869 23.6331C15.8232 23.6331 15.8595 23.6151 15.914 23.6151C15.9866 23.5972 16.0593 23.5972 16.1319 23.5972C16.2045 23.5972 16.2772 23.5792 16.3498 23.5972C16.3861 23.5972 16.4225 23.5972 16.4769 23.5972C16.5133 23.5972 16.5496 23.5972 16.5859 23.5792C16.6222 23.5613 16.6222 23.5254 16.6041 23.4895C16.5496 23.4357 16.4406 23.4536 16.3861 23.4536C16.2953 23.4536 16.2227 23.4536 16.1319 23.4536C16.0774 23.4536 16.0411 23.4715 15.9866 23.4715V23.4536C15.9866 23.4356 15.9866 23.4356 15.9866 23.4356C15.9866 23.4177 15.9685 23.4177 15.9685 23.3998L15.9503 23.3818C15.9503 23.3818 15.9321 23.3639 15.914 23.3639C15.8958 23.3639 15.8958 23.3639 15.8777 23.3639C15.8595 23.3639 15.8595 23.3639 15.8413 23.3639H15.8232C15.8232 23.3639 15.8232 23.3639 15.805 23.3639C15.805 23.3459 15.8232 23.31 15.8232 23.2921C15.8777 23.2741 15.914 23.2741 15.9685 23.2741C16.0593 23.2741 16.1501 23.2741 16.2409 23.2741C16.3317 23.2741 16.4225 23.2741 16.5133 23.2921C16.5677 23.2921 16.6041 23.31 16.6585 23.31C16.6949 23.31 16.7312 23.31 16.7493 23.31C16.7493 23.2741 16.7493 23.2382 16.7675 23.2024C16.7312 23.1844 16.6949 23.1844 16.6585 23.1844C16.6041 23.1844 16.5496 23.1665 16.4951 23.1665C16.4043 23.1665 16.2953 23.1665 16.2045 23.1665C16.1501 23.1665 16.0774 23.1665 16.0048 23.1665C16.0048 23.1485 16.0048 23.1485 16.0048 23.1306C16.0048 23.1306 16.0048 23.1126 15.9866 23.1126L15.9685 23.0947C15.9503 23.0947 15.9503 23.0947 15.9321 23.0767H15.914C15.914 23.0767 15.914 23.0767 15.8958 23.0767C15.8958 23.0588 15.914 23.0408 15.914 23.0408C16.0411 23.0408 16.1864 23.0049 16.3135 22.987C16.3861 22.987 16.4769 22.987 16.5496 22.987C16.5859 22.987 16.6222 22.987 16.6767 23.0049C16.713 23.0049 16.7493 23.0049 16.7675 23.0049C16.7675 22.969 16.7675 22.9332 16.7857 22.8973C16.7675 22.8793 16.7493 22.8614 16.713 22.8614C16.6767 22.8434 16.6222 22.8434 16.5859 22.8434C16.4951 22.8434 16.4043 22.8434 16.3317 22.8434C16.2227 22.8614 16.1137 22.8614 16.0048 22.8973C16.0048 22.8793 16.0229 22.8614 16.0229 22.8614C16.0956 22.7358 16.1682 22.6281 16.1864 22.4845C16.2045 22.4845 16.2045 22.4845 16.2227 22.4845C16.368 22.5024 16.4951 22.5025 16.6404 22.5204C16.7675 22.5383 16.9128 22.5563 17.0217 22.6281C17.2033 22.7537 17.2033 22.8793 17.2215 22.9152C17.2397 22.9332 17.2941 22.9332 17.3305 22.8973C17.3486 22.8793 17.4394 22.7716 17.4576 22.7537C17.5121 22.6819 17.5665 22.6101 17.621 22.5204C17.7118 22.3409 17.7481 22.1615 17.7481 21.9641C17.7481 21.7846 17.7118 21.6051 17.6392 21.4436C17.5665 21.3001 17.4576 21.1565 17.3486 21.0309C17.276 20.9591 17.2033 20.9052 17.1307 20.8693C17.0217 20.8155 16.9491 20.7976 16.8401 20.8335C16.8038 20.8335 16.822 20.8873 16.8401 20.8873C16.8946 20.8873 16.9491 20.9232 17.0036 20.9591C17.0399 20.977 17.0944 21.0129 17.1307 21.0488C17.2033 21.1026 17.2578 21.1744 17.3123 21.2642C17.839 21.982 17.3486 22.6819 17.3305 22.6999C17.3305 22.6819 17.3123 22.646 17.3123 22.6281C17.1125 22.2871 16.5314 22.2871 16.2772 22.2512C15.8232 22.1794 15.4781 21.8205 15.4418 21.3718C15.4237 21.2462 15.4418 21.1026 15.4963 20.977C15.5145 20.9232 15.5508 20.8693 15.5689 20.8335C15.5871 20.8155 15.6053 20.7796 15.6234 20.7617C15.6234 20.7437 15.6416 20.7437 15.6416 20.7258C15.6416 20.7258 15.6416 20.7258 15.6416 20.7078C15.6597 20.7078 15.6779 20.7258 15.6961 20.7258C15.6961 20.7437 15.6779 20.7617 15.6779 20.7796C15.6416 20.8514 15.6053 21.1026 15.6234 21.2462C15.6779 21.8564 16.259 21.982 16.3135 21.982C16.3317 21.982 16.3498 21.9461 16.3317 21.9461C16.2953 21.9102 16.1319 21.8025 16.0593 21.7128C15.9866 21.6231 15.8413 21.4257 15.8958 21.0309C15.8958 20.995 15.9321 20.8693 15.9866 20.7258C16.0048 20.7258 16.0229 20.7258 16.0593 20.7078C16.0411 20.7437 16.0411 20.7617 16.0411 20.7976C16.0229 20.9411 16.0229 21.1565 16.0956 21.2821C16.2409 21.6231 16.5133 21.7308 16.6222 21.7128C16.6585 21.7128 16.6404 21.6769 16.6222 21.659C16.5859 21.6231 16.3861 21.5154 16.2953 21.1206C16.2772 21.0129 16.259 20.7796 16.3498 20.5822C16.4043 20.5463 16.4769 20.5104 16.5133 20.4566C16.6585 20.313 16.6949 20.1156 16.6767 19.9182C16.6585 19.7387 16.5859 19.4875 16.4043 19.3978C16.2953 19.3439 15.9503 19.3619 15.8777 19.6849C15.8595 19.7387 15.914 19.7926 15.9685 19.7567C16.0048 19.7208 16.1501 19.5234 16.3498 19.6131C16.4588 19.667 16.4588 19.8644 16.4406 19.99C16.4043 20.3848 15.9685 20.4745 15.805 20.4566C15.6597 20.4386 15.46 20.3489 15.3692 20.1335C15.3329 20.0438 15.3147 19.9361 15.3147 19.8285C15.3147 19.5772 15.351 19.326 15.46 19.0927C15.6779 18.6261 16.0229 18.2313 16.4043 17.8903C16.4406 17.8544 16.4769 17.8185 16.5133 17.7826C16.5133 17.8005 16.4951 17.8005 16.4951 17.8185C16.4043 17.9441 15.9685 18.6261 16.0229 19.0927C16.0229 19.1286 16.0774 19.1286 16.0956 19.0927C16.3317 18.303 16.6404 18.1056 16.7857 17.9621C16.7493 18.0159 16.3861 18.6979 16.3498 19.1106C16.3498 19.1286 16.3861 19.1465 16.4043 19.1286C16.4588 19.0388 16.6404 18.5543 16.9309 18.3389C16.9309 18.3748 16.9128 18.4287 16.9128 18.4646C16.8946 18.4825 16.6767 18.8414 16.6585 19.0747C16.6585 19.1106 16.6585 19.1465 16.6767 19.1824C16.6949 19.2003 16.713 19.2003 16.7312 19.1824C16.7493 19.1645 16.7675 19.1286 16.7857 19.0927C16.8038 19.0568 16.822 19.0388 16.822 19.0029C16.8401 18.967 16.8583 18.9312 16.8946 18.8953C16.8765 20.0977 17.3849 20.5822 17.4394 20.654C17.5665 20.7976 17.7118 20.9052 17.8571 21.0129C17.9842 21.1206 18.1114 21.2642 18.2022 21.3898C18.3838 21.641 18.5109 21.9641 18.8196 22.0897C18.983 22.1615 19.1828 22.1256 19.3281 22.0358C19.4915 21.9461 19.5823 21.7846 19.655 21.6231C19.6913 21.5334 19.7094 21.4616 19.7094 21.3718C19.7094 21.318 19.6368 21.3001 19.6005 21.3359C19.5823 21.3718 19.546 21.3898 19.5278 21.4257C19.5097 21.4616 19.4915 21.4975 19.4734 21.5334C19.437 21.6051 19.3826 21.659 19.3281 21.7128C19.2373 21.8025 19.092 21.8564 18.9649 21.8384C18.8741 21.8205 18.7833 21.7487 18.7106 21.659C18.6198 21.5513 18.5654 21.4257 18.4746 21.3001C18.3838 21.1565 18.2748 21.0309 18.1658 20.9232C18.0387 20.7976 17.4576 20.4566 17.2397 19.8644C17.1307 19.5772 17.0762 19.2721 17.0762 18.967C17.0762 18.662 17.1125 18.3748 17.2215 18.0877C17.3305 17.8005 17.4576 17.5493 17.6937 17.3339C17.9116 17.1365 18.184 17.0109 18.4746 16.993C18.638 16.993 18.7833 17.0289 18.9286 17.1006C19.0557 17.1724 19.1646 17.298 19.2554 17.4237C19.546 17.8544 19.5642 18.2851 19.546 18.4825C19.437 19.1824 20.9443 18.7517 20.9443 18.7517C22.0521 18.321 22.3245 17.4237 22.3427 16.5084C22.5061 16.6161 22.6514 16.6161 22.7603 16.6161C22.9601 16.6161 23.2688 16.4725 23.3959 16.0957C23.4141 16.0957 23.4141 16.0957 23.4323 16.0957C23.5594 16.0777 23.7047 16.0598 23.8318 16.0059C23.9407 15.9521 24.0497 15.8982 24.1405 15.8085C24.2131 15.7367 24.2676 15.6111 24.2313 15.5034C24.2131 15.4496 24.195 15.3958 24.195 15.3419C24.195 15.2701 24.2131 15.2342 24.2495 15.1804C24.3039 15.0727 24.3947 15.0189 24.4855 14.9471C24.5945 14.8753 24.6853 14.8035 24.7761 14.7317C24.8669 14.66 24.9577 14.5702 25.0485 14.4805C25.0848 14.5343 25.1393 14.5702 25.1938 14.6061C25.2846 14.66 25.4117 14.6779 25.5207 14.6061C25.6115 14.5523 25.6478 14.4626 25.6841 14.3728C25.7204 14.301 25.7931 14.2293 25.8657 14.1934C26.0292 14.0677 26.2108 13.9601 26.3379 13.8165C26.4105 13.7268 26.4832 13.637 26.5376 13.5294C26.6103 13.5294 26.6829 13.5294 26.7556 13.5114C26.8464 13.4935 26.919 13.4755 26.9916 13.4396C27.1369 13.3678 27.2822 13.2781 27.3912 13.1704C27.4093 13.1525 27.4275 13.1345 27.4456 13.0986C27.4456 13.1166 28.0812 14.7676 28.3173 15.8265C28.39 16.1854 28.3355 16.5443 28.3536 16.6699C28.3536 16.7956 28.7532 17.7826 28.844 17.998C29.0256 18.4466 29.7883 19.9541 29.8609 20.0977C29.8791 20.313 30.0789 20.7258 29.9336 20.995ZM19.1646 20.2053C19.092 20.1156 19.0194 20.0259 18.9467 19.9182C18.8196 19.7387 18.7833 19.4875 18.8196 19.2901C18.8378 19.1824 18.8741 19.0747 18.9286 18.967C18.9649 18.9132 19.0012 18.8414 19.0375 18.7876C19.1646 18.662 19.1828 18.4466 19.1828 18.2671C19.1646 18.0518 19.092 17.8544 18.9649 17.6929C18.7288 17.4057 18.2385 17.2801 17.9298 17.5314C17.7663 17.657 17.6755 17.8185 17.6029 17.998C17.5121 18.1954 17.4213 18.4107 17.3668 18.6261C17.2397 19.0568 17.3123 19.5413 17.5302 19.9361C17.6392 20.1335 18.1295 20.6719 18.1658 20.7078C18.2385 20.7976 18.3111 20.8873 18.4019 20.9591C18.5109 21.0668 18.6562 20.9232 18.6017 20.8155C18.5654 20.7258 18.4927 20.654 18.4382 20.5822C18.3837 20.5104 18.3111 20.4566 18.2385 20.4027C18.0932 20.2951 17.9479 20.1874 17.8389 20.0438C17.7118 19.9002 17.621 19.7387 17.5665 19.5593C17.4939 19.3619 17.4394 19.1645 17.4576 18.9491C17.4939 18.7517 17.5665 18.5363 17.6573 18.3389C17.73 18.1774 17.8026 18.0159 17.9116 17.8723C17.9661 17.8185 18.0205 17.7647 18.075 17.7288C18.1113 17.7108 18.3474 17.5852 18.4382 17.8185C18.4746 17.9082 18.4382 17.98 18.4746 18.0697C18.5109 18.1415 18.5835 18.1954 18.6562 18.2133C18.7106 18.2313 18.9286 18.2851 18.8922 18.5363C18.8741 18.6261 18.8014 18.662 18.7106 18.662C18.6017 18.6799 18.4927 18.662 18.3838 18.6979C18.2748 18.7337 18.184 18.8055 18.1114 18.8953C17.9661 19.0927 17.9297 19.3798 17.9842 19.5952C18.0024 19.7028 18.075 19.8105 18.184 19.8644C18.2748 19.9182 18.3656 19.9361 18.4746 19.972C18.5472 19.99 18.6198 20.0438 18.6562 20.1156C18.7106 20.2053 18.7288 20.313 18.7651 20.4027C18.8014 20.5104 18.8741 20.636 18.983 20.6719C19.1102 20.7078 19.2373 20.636 19.2736 20.5104C19.3099 20.4207 19.2373 20.2951 19.1646 20.2053ZM16.7493 22.0897C16.6949 22.0717 16.4951 22.0717 16.4043 22.1076C16.3861 22.1076 16.368 22.1256 16.368 22.1435C16.368 22.1615 16.368 22.1794 16.4043 22.1794C16.4225 22.1794 16.713 22.2333 16.7312 22.2333C16.7493 22.2333 16.7675 22.2333 16.7857 22.2333C16.8038 22.2153 16.822 22.1974 16.822 22.1794C16.822 22.1435 16.7857 22.1076 16.7493 22.0897ZM17.0036 22.1435H16.9854H16.9673C16.9673 22.1435 16.9673 22.1435 16.9491 22.1435H16.9309H16.9128C16.9128 22.1435 16.8946 22.1435 16.8946 22.1615C16.8946 22.1615 16.8946 22.1794 16.8765 22.1794C16.8765 22.1974 16.8765 22.2153 16.8765 22.2153C16.8765 22.2153 16.8765 22.2333 16.8946 22.2333C16.8946 22.2333 16.9128 22.2333 16.9128 22.2512C16.9128 22.2512 16.9309 22.2512 16.9309 22.2691H16.9491H16.9673C16.9854 22.2691 16.9854 22.2691 17.0036 22.2691C17.0217 22.2691 17.0217 22.2691 17.0399 22.2691L17.0581 22.2512L17.0762 22.2333C17.0762 22.2153 17.0762 22.1974 17.0762 22.1794C17.0581 22.1615 17.0581 22.1435 17.0399 22.1435C17.0217 22.1435 17.0217 22.1435 17.0036 22.1435ZM16.7493 21.8025C16.7312 21.8025 16.7312 21.8205 16.713 21.8205C16.713 21.8384 16.713 21.8384 16.713 21.8564C16.713 21.8923 16.7312 21.8923 16.7675 21.9102H16.7857C16.8038 21.9102 16.8038 21.9102 16.822 21.9102C16.8401 21.9102 16.8401 21.9102 16.8583 21.9102C16.8765 21.9102 16.8765 21.9102 16.8946 21.9102C16.9128 21.9102 16.9309 21.9102 16.9491 21.9102H16.9673H16.9854C17.0036 21.9102 17.0036 21.8923 17.0036 21.8743C17.0036 21.8564 17.0036 21.8564 16.9854 21.8384L16.9673 21.8205C16.9491 21.8025 16.9491 21.8025 16.9309 21.8025C16.9128 21.8025 16.9128 21.7846 16.8946 21.7846C16.8765 21.7846 16.8401 21.7667 16.822 21.7667C16.7857 21.8025 16.7675 21.8025 16.7493 21.8025ZM22.2519 23.0229C21.3802 23.0947 20.7082 22.9511 20.5085 22.9511C20.4177 22.9511 20.2542 22.969 20.0726 23.0408C20 23.0767 19.4552 23.3459 19.3644 23.3818C19.3644 23.3998 19.3826 23.4356 19.3826 23.4536C19.6005 23.3998 19.8002 23.31 20 23.2562C20.2361 23.1844 20.4903 23.2024 20.7264 23.2024C20.7809 23.2024 21.8342 23.1844 22.161 23.1485C22.2882 23.1306 22.4335 23.1126 22.5606 23.0767C22.5787 23.0767 22.5969 23.0767 22.6151 23.0588C22.5787 23.0229 22.5424 22.987 22.5061 22.9332C22.4516 23.0049 22.3608 23.0229 22.2519 23.0229ZM19.9274 29.5374C19.9092 29.5015 19.891 29.4835 19.8729 29.4476C19.8547 29.4117 19.8366 29.3758 19.8002 29.3399C19.7821 29.3399 19.7639 29.3399 19.7458 29.3399C19.6186 29.322 19.4915 29.3041 19.3644 29.2682C19.1283 29.2143 18.9286 29.0887 18.7106 28.981C18.6925 28.9631 18.6561 28.999 18.6925 29.0169C18.7833 29.1066 18.8559 29.1784 18.9649 29.2502C19.0738 29.322 19.1828 29.3758 19.3099 29.4117C19.437 29.4476 19.5642 29.4835 19.6913 29.5015C19.7639 29.5194 19.8366 29.5374 19.9274 29.5374ZM19.6186 29.6989C19.3826 29.663 19.1465 29.5912 18.9467 29.4656C18.9104 29.4476 18.8741 29.4835 18.9104 29.5194C19.092 29.6809 19.2918 29.8065 19.5278 29.8424C19.6368 29.8604 19.7639 29.8783 19.8729 29.8963C19.9274 29.8963 19.9818 29.9142 20.0545 29.9322C20.109 29.9501 20.1634 29.9681 20.2179 29.9681C20.1816 29.8963 20.1271 29.8424 20.0908 29.7707C20.0545 29.7707 20.0182 29.7527 20 29.7527C19.8547 29.7348 19.7458 29.7348 19.6186 29.6989ZM19.6186 29.0887C19.5642 29.0169 19.5278 28.9451 19.4915 28.8733H19.4734C19.3644 28.8554 19.2736 28.8195 19.1646 28.8016C19.0012 28.7477 18.8559 28.6221 18.6743 28.6042C18.638 28.6042 18.6198 28.64 18.6562 28.658C18.747 28.6939 18.8196 28.7657 18.8741 28.8195C18.9467 28.8913 19.0375 28.9451 19.1283 28.981C19.2373 29.0169 19.3281 29.0528 19.437 29.0708C19.5097 29.0887 19.5642 29.1066 19.6186 29.0887ZM19.092 28.5144C19.1646 28.5503 19.2554 28.6042 19.3462 28.6221C19.3099 28.5503 19.2736 28.4965 19.2554 28.4247C19.201 28.4067 19.1646 28.3888 19.1102 28.3708C19.0194 28.335 18.9286 28.2811 18.8378 28.2452C18.747 28.2093 18.638 28.1914 18.529 28.1734C18.5109 28.1734 18.4927 28.1914 18.529 28.2093C18.7288 28.2632 18.8922 28.4067 19.092 28.5144ZM22.2155 22.5383C22.1247 22.5563 22.0521 22.5922 21.9613 22.6101C21.7434 22.664 21.5254 22.7178 21.2894 22.7178C21.1078 22.7178 20.4903 22.646 20.4177 22.6281C20.2724 22.5922 20.1271 22.5742 19.9818 22.5922C19.6005 22.664 19.3644 22.969 19.2736 23.0049C19.2736 23.0229 19.2918 23.0588 19.2918 23.0767C19.8366 22.8075 20.3632 22.8255 20.4358 22.8255C20.5085 22.8255 21.5073 22.8434 21.925 22.7357C22.0521 22.6999 22.1792 22.664 22.2882 22.6281C22.27 22.6281 22.2519 22.5922 22.2155 22.5383ZM21.3983 21.318C21.2167 21.318 21.0351 21.318 20.8535 21.2821C20.6719 21.2642 20.5085 21.2462 20.3269 21.2642C20.2542 21.2821 20.1634 21.2821 20.0908 21.318C20 21.3359 19.9274 21.3898 19.8547 21.4257C19.8366 21.4436 19.8547 21.4795 19.8729 21.4795C19.9637 21.4616 20.0363 21.4436 20.1271 21.4257C20.1998 21.4077 20.2906 21.4077 20.3632 21.4077C20.5448 21.4077 20.7082 21.4257 20.8717 21.4436C21.0533 21.4616 21.2167 21.4616 21.3983 21.4616C21.4347 21.4616 21.4528 21.4616 21.4891 21.4616C21.471 21.4077 21.4347 21.3539 21.3983 21.318C21.4165 21.318 21.4165 21.318 21.3983 21.318ZM21.1622 20.9232C21.0351 20.9232 20.908 20.9232 20.7809 20.9052C20.7082 20.8873 20.6174 20.8873 20.5448 20.8693C20.454 20.8514 20.3814 20.8335 20.2906 20.8335C20.2179 20.8155 20.1271 20.8155 20.0545 20.8155C19.9637 20.8155 19.891 20.8514 19.8184 20.8693C19.8002 20.8693 19.8002 20.9232 19.8184 20.9232C19.891 20.9232 19.9818 20.9232 20.0545 20.9232C20.1453 20.9232 20.2179 20.9411 20.3087 20.9411C20.4722 20.9591 20.6356 21.0129 20.799 21.0488C20.9443 21.0668 21.0896 21.0668 21.253 21.0668C21.2349 21.0309 21.1986 20.977 21.1622 20.9232ZM19.8002 19.1465C19.8002 19.1645 19.8184 19.1645 19.8002 19.1465C19.8184 19.1645 19.8184 19.1645 19.8184 19.1645C19.8184 19.1645 20.0363 19.2901 20.3814 19.2003C20.3814 19.1824 20.3632 19.1465 20.3632 19.1286C20.3632 19.1286 20.3632 19.1286 20.345 19.1286C20.3269 19.1286 20.2906 19.1106 20.2724 19.1106C20.2179 19.1106 20.1634 19.1106 20.109 19.0927C20.0545 19.0927 19.7821 19.1106 19.7821 19.1106C19.8184 19.1286 19.8002 19.1286 19.8002 19.1465ZM19.4734 19.6669C19.5278 19.7028 19.6005 19.6849 19.6731 19.6849C19.7458 19.6849 19.8184 19.6849 19.9092 19.6849C20.0545 19.6849 20.2179 19.6849 20.3632 19.7028C20.4358 19.7028 20.5085 19.7208 20.5811 19.7208C20.563 19.6849 20.5448 19.6311 20.5266 19.5952C20.454 19.5952 20.3814 19.5772 20.3087 19.5772C20.1634 19.5593 20.0182 19.5593 19.8729 19.5593C19.8002 19.5593 19.7276 19.5593 19.6368 19.5772C19.5823 19.5772 19.5097 19.5772 19.4552 19.6311C19.4552 19.6311 19.4552 19.6669 19.4734 19.6669ZM19.7639 20.0618C19.8366 20.0438 19.9274 20.0438 20 20.0438C20.1453 20.0438 20.3087 20.0797 20.454 20.0977C20.5448 20.0977 20.6356 20.1156 20.7446 20.1156C20.7264 20.0797 20.7082 20.0438 20.6901 20.0079C20.6901 19.99 20.6719 19.99 20.6719 19.972C20.5811 19.972 20.5085 19.972 20.4177 19.9541C20.2542 19.9361 20.109 19.9003 19.9455 19.9182C19.8729 19.9182 19.8002 19.9361 19.7276 19.9541C19.655 19.972 19.5823 20.0079 19.4915 20.0438C19.4552 20.0618 19.4734 20.1156 19.5097 20.1156C19.6186 20.0977 19.6913 20.0797 19.7639 20.0618ZM19.8729 20.4745C19.9455 20.4745 20.0182 20.4745 20.0908 20.4745C20.2361 20.4745 20.3995 20.4925 20.5448 20.5104C20.6719 20.5104 20.799 20.5284 20.9262 20.5284C20.8898 20.4745 20.8717 20.4207 20.8354 20.3669C20.7264 20.3669 20.6174 20.3489 20.5085 20.3489C20.345 20.331 20.1998 20.331 20.0363 20.331C19.9637 20.331 19.891 20.3489 19.8184 20.3669C19.7458 20.3848 19.6731 20.4207 19.6005 20.4566C19.5642 20.4745 19.6005 20.5104 19.6186 20.5104C19.7094 20.4745 19.8002 20.4745 19.8729 20.4745ZM19.6368 22.0179C19.8184 21.9461 20.0363 21.9102 20.2179 21.8743C20.4177 21.8564 20.6356 21.8743 20.8354 21.8923C21.0351 21.9102 21.253 21.9282 21.4528 21.9102C21.5618 21.9102 21.6526 21.8923 21.7615 21.8743C21.7434 21.8384 21.707 21.8025 21.6889 21.7667C21.5981 21.7846 21.4891 21.7846 21.3983 21.8025C21.1804 21.8205 20.9806 21.8025 20.7809 21.7846C20.5811 21.7667 20.3814 21.7667 20.1816 21.8025C20.0908 21.8205 19.9818 21.8384 19.891 21.8743C19.8002 21.9102 19.7094 21.9461 19.6186 22C19.6005 22 19.6005 22.0358 19.6368 22.0179ZM19.201 22.5383C19.201 22.5563 19.201 22.5742 19.201 22.5922C19.3644 22.5742 19.5097 22.5383 19.655 22.4666H19.6731C20.1998 22.2691 20.8717 22.3589 20.9625 22.3589C21.1804 22.3589 21.3983 22.3589 21.6344 22.3409C21.7434 22.323 21.8705 22.323 21.9794 22.305H21.9976C21.9613 22.2691 21.9431 22.2153 21.9068 22.1794C21.816 22.1974 21.7434 22.1974 21.6526 22.2153C21.017 22.305 20.3087 22 19.7094 22.2512C19.7094 22.2512 19.2918 22.5024 19.201 22.5383ZM18.4564 27.9043C18.5472 27.9401 18.6198 27.994 18.7106 28.0299C18.8014 28.0658 18.8922 28.0837 18.983 28.1196C19.0375 28.1376 19.0738 28.1376 19.1283 28.1555C19.1102 28.1196 19.092 28.0658 19.0738 28.0299C19.0557 28.0299 19.0194 28.0119 19.0012 28.0119C18.9104 27.994 18.8196 27.9581 18.747 27.9401C18.6562 27.9222 18.5654 27.9043 18.4746 27.8863C18.4564 27.8684 18.4382 27.8863 18.4564 27.9043ZM21.7978 31.8345C21.707 31.7268 20.8717 31.1166 20.2179 30.7039C20.109 30.6321 20 30.5423 19.8729 30.4706C19.655 30.327 19.4189 30.2014 19.1828 30.0757C19.0738 30.004 18.9467 29.9501 18.8196 29.8963C18.6925 29.8424 18.5835 29.7886 18.4564 29.7348C17.9479 29.5194 17.4213 29.3041 16.8765 29.1605C16.3498 29.0169 15.7869 28.9092 15.2239 28.9451C14.9333 28.9631 14.6428 29.0169 14.3704 29.1246C14.2432 29.1784 14.1161 29.2323 13.989 29.3041C13.9345 29.3399 13.7166 29.5194 13.6803 29.5732C13.6621 29.5912 13.6803 29.6091 13.7166 29.6091C13.7711 29.5912 14.2069 29.4476 14.3522 29.4117C14.3159 29.4476 14.2977 29.4656 14.2796 29.5015C14.2069 29.5732 14.1343 29.663 14.0798 29.7348C14.0435 29.7707 14.0253 29.8065 14.0072 29.8424C14.0616 29.8424 14.1161 29.8245 14.1706 29.8245C14.2251 29.7527 14.2977 29.6809 14.3522 29.6271C14.4612 29.5194 14.5701 29.4297 14.6972 29.3399C14.788 29.3399 14.8607 29.322 14.9515 29.322C14.897 29.3758 14.8244 29.4117 14.7699 29.4656C14.6791 29.5374 14.5883 29.6271 14.4975 29.7168C14.4612 29.7527 14.443 29.7886 14.4067 29.8245C14.4612 29.8245 14.5157 29.8245 14.5701 29.8424C14.5883 29.8245 14.5883 29.8245 14.6064 29.8065C14.6972 29.7168 14.7881 29.6271 14.897 29.5553C14.9878 29.4835 15.0968 29.4117 15.2239 29.3579C15.2421 29.3399 15.2602 29.3399 15.2965 29.322C15.3329 29.322 15.3692 29.322 15.4237 29.322C15.46 29.322 15.5145 29.322 15.5508 29.3399C15.46 29.3938 15.3873 29.4476 15.2965 29.5194C15.2057 29.5912 15.1149 29.6809 15.0241 29.7707C14.9878 29.8066 14.9697 29.8424 14.9333 29.8783C15.006 29.8783 15.0605 29.8963 15.1331 29.8963C15.2239 29.8245 15.3329 29.7527 15.4237 29.6989C15.5871 29.5912 15.7687 29.5015 15.9503 29.3938C16.0411 29.4117 16.1319 29.4297 16.2227 29.4476C16.1137 29.5015 16.0048 29.5732 15.8958 29.6271C15.7869 29.6989 15.6779 29.7527 15.5689 29.8245C15.5145 29.8604 15.4781 29.8963 15.4237 29.9322C15.4963 29.9322 15.5689 29.9501 15.6416 29.9501C15.7505 29.8783 15.8595 29.8245 15.9685 29.7527C16.0774 29.6989 16.1864 29.645 16.3135 29.6091C16.368 29.5912 16.4406 29.5732 16.4951 29.5374C16.5133 29.5374 16.5496 29.5194 16.5677 29.5015C16.6404 29.5194 16.6949 29.5374 16.7675 29.5553C16.6767 29.5912 16.5859 29.6271 16.4951 29.6809C16.368 29.7348 16.2409 29.8065 16.1137 29.8963C16.0774 29.9322 16.0229 29.9501 15.9866 29.986C16.0593 29.986 16.1319 30.004 16.2045 30.004C16.3317 29.9501 16.4406 29.8963 16.5677 29.8424C16.6949 29.7886 16.822 29.7527 16.9673 29.7348C17.0217 29.7168 17.0944 29.6989 17.167 29.6809C17.1852 29.6809 17.2215 29.6989 17.2397 29.6989C17.167 29.7348 17.0762 29.7707 17.0036 29.8065C16.8765 29.8604 16.7675 29.9322 16.6585 30.004C16.6404 30.0219 16.6041 30.0399 16.5677 30.0578C16.6585 30.0757 16.7312 30.0937 16.822 30.0937H16.8401C16.9128 30.0578 17.0036 30.0219 17.0762 29.986C17.1852 29.9322 17.3123 29.8963 17.4394 29.8783C17.4939 29.8604 17.5665 29.8424 17.621 29.8245C17.6755 29.8424 17.7118 29.8604 17.7663 29.8783C17.6573 29.9142 17.5665 29.9681 17.4576 30.004C17.3668 30.0398 17.276 30.0937 17.1852 30.1655C17.2578 30.1834 17.3486 30.2014 17.4213 30.2193C17.4394 30.2014 17.4757 30.2014 17.4939 30.1834C17.6573 30.1116 17.839 30.0578 18.0206 30.0219C18.0387 30.0219 18.075 30.004 18.1114 30.004C18.1477 30.0219 18.2021 30.0399 18.2385 30.0578C18.184 30.0757 18.1295 30.0937 18.0932 30.1116C18.0024 30.1475 17.8934 30.1834 17.8026 30.2373C17.7663 30.2552 17.73 30.2732 17.7118 30.2911C17.7845 30.309 17.8571 30.327 17.9298 30.3449C18.0024 30.327 18.075 30.309 18.1477 30.2911C18.2385 30.2732 18.3474 30.2552 18.4382 30.2373C18.4927 30.2373 18.5472 30.2193 18.6017 30.2193C18.6743 30.2552 18.747 30.2911 18.8196 30.309C18.7833 30.327 18.747 30.327 18.7106 30.3449C18.6198 30.3629 18.5472 30.3988 18.4564 30.4347C18.4201 30.4526 18.3837 30.4706 18.3474 30.4885C18.3656 30.4885 18.3838 30.5065 18.4019 30.5065C18.4564 30.5244 18.5109 30.5423 18.5472 30.5603C18.6198 30.5423 18.6743 30.5423 18.747 30.5244C18.8378 30.5064 18.9286 30.4885 19.0012 30.4706C19.0375 30.4706 19.0738 30.4526 19.092 30.4526C19.1465 30.4885 19.2191 30.5064 19.2736 30.5423C19.2191 30.5603 19.1828 30.5782 19.1283 30.6141C19.0557 30.65 19.0012 30.6859 18.9286 30.7039C18.9104 30.7039 18.9104 30.7218 18.9104 30.7218C18.9286 30.7397 18.9649 30.7398 18.983 30.7577C19.0375 30.7577 19.092 30.7577 19.1465 30.7577C19.2191 30.7577 19.2736 30.7218 19.3462 30.7218C19.4007 30.7039 19.4734 30.6859 19.5278 30.6859C19.5823 30.7218 19.655 30.7398 19.7094 30.7756C19.6731 30.7756 19.655 30.7936 19.6186 30.8115C19.5642 30.8295 19.5097 30.8654 19.4734 30.8833C19.4189 30.9013 19.4552 30.973 19.5097 30.973C19.5642 30.9551 19.6186 30.9551 19.6731 30.9551C19.7276 30.9551 19.7821 30.9551 19.8366 30.9372C19.891 30.9372 19.9455 30.9372 20.0182 30.9372H20.0363L20.0545 30.9551C20.3269 31.0987 20.5993 31.2602 20.8717 31.4038C21.017 31.4755 21.1441 31.5473 21.2894 31.6191C21.4165 31.6909 21.5436 31.7806 21.6889 31.8345C21.7978 31.8704 21.816 31.8524 21.7978 31.8345ZM22.833 27.2582C22.8693 27.2402 22.8693 27.1864 22.8148 27.1864C22.7603 27.1685 22.7059 27.1864 22.6514 27.2043C22.5969 27.2223 22.5424 27.2402 22.4879 27.2402C21.925 27.2941 21.707 27.5094 21.707 27.5274C21.7615 27.5094 21.8342 27.4915 21.9068 27.4735C21.9976 27.4556 22.1066 27.4377 22.1974 27.4197C22.3063 27.4018 22.4153 27.3838 22.5061 27.3659C22.5606 27.3479 22.6151 27.3479 22.6695 27.33C22.7422 27.2941 22.7966 27.2761 22.833 27.2582ZM22.7603 27.4377C22.7059 27.4377 22.6695 27.4735 22.6332 27.4915C22.5969 27.5094 22.5424 27.5274 22.5061 27.5453C22.4153 27.5812 22.3063 27.6171 22.2155 27.6351C21.8705 27.6889 21.7797 27.8145 21.7797 27.8325C21.8523 27.7786 21.9431 27.7786 22.0158 27.7607C22.1066 27.7427 22.1974 27.7427 22.2882 27.7248C22.379 27.7068 22.4698 27.6889 22.5606 27.653C22.5969 27.6351 22.6514 27.6171 22.6877 27.5992C22.724 27.5812 22.7785 27.5453 22.7967 27.5094C22.8148 27.4735 22.7967 27.4377 22.7603 27.4377ZM22.9964 26.8275C23.0146 26.8095 23.0146 26.7736 22.9783 26.7736C22.8693 26.7736 22.7422 26.8095 22.6332 26.8275C22.5061 26.8454 22.3971 26.8634 22.27 26.8634C22.1611 26.8634 22.0521 26.8813 21.9431 26.9172C21.8523 26.9531 21.707 27.0787 21.707 27.1146C21.9068 27.0428 22.1066 26.989 22.3245 26.9711C22.5424 26.989 22.8148 26.9711 22.9964 26.8275ZM21.816 28.1914C21.8887 28.1555 21.9613 28.1196 22.0158 28.1017C22.1066 28.0658 22.1974 28.0658 22.2882 28.0478C22.4516 28.0119 22.6332 27.9581 22.724 27.8145C22.7422 27.7966 22.7059 27.7607 22.6877 27.7607C22.615 27.7966 22.5424 27.8325 22.4698 27.8684C22.3971 27.9043 22.3063 27.9222 22.2155 27.9401C22.1247 27.9581 22.0339 27.9581 21.9613 27.994C21.9068 28.0478 21.816 28.1734 21.816 28.1914ZM21.9794 28.4785C22.0339 28.4785 22.1066 28.4785 22.161 28.4606C22.2337 28.4606 22.2882 28.4426 22.3608 28.4247C22.4153 28.4067 22.4879 28.3888 22.5424 28.3708C22.5787 28.3708 22.5969 28.3529 22.6332 28.335C22.6695 28.317 22.6877 28.317 22.724 28.2811C22.7422 28.2632 22.724 28.2273 22.7059 28.2093C22.6695 28.1914 22.6514 28.2093 22.6151 28.2093C22.5787 28.2093 22.5606 28.2273 22.5243 28.2273C22.4698 28.2452 22.3971 28.2632 22.3427 28.2811C22.2882 28.2991 22.2155 28.317 22.161 28.335C22.1066 28.3529 22.0339 28.3888 21.9794 28.4067C21.9613 28.4606 21.9613 28.4785 21.9794 28.4785ZM22.1247 28.7657C22.2155 28.7657 22.2882 28.7657 22.379 28.7477C22.4153 28.7477 22.4698 28.7298 22.5061 28.7298C22.5243 28.7298 22.5424 28.7298 22.5606 28.7118C22.5787 28.7118 22.5969 28.6939 22.6332 28.6939C22.6877 28.6759 22.6695 28.6042 22.6151 28.6042C22.5969 28.6042 22.5606 28.6042 22.5424 28.6042C22.5243 28.6042 22.5061 28.6042 22.4879 28.6221C22.4516 28.6221 22.3971 28.64 22.3608 28.64C22.27 28.658 22.1974 28.6939 22.1066 28.7118C22.0884 28.7298 22.0884 28.7657 22.1247 28.7657ZM22.4153 29.1246C22.4698 29.1246 22.5061 29.1066 22.5606 29.0708C22.6151 29.0528 22.6514 29.0349 22.7059 29.0169C22.724 29.0169 22.724 28.999 22.7422 28.999C22.7603 28.999 22.7603 28.981 22.7785 28.981C22.7967 28.9631 22.833 28.9451 22.833 28.9272C22.8511 28.9092 22.833 28.8554 22.7967 28.8554C22.7603 28.8554 22.7422 28.8554 22.724 28.8554C22.7059 28.8554 22.6695 28.8733 22.6514 28.8733C22.6151 28.8913 22.5606 28.9092 22.5243 28.9272C22.4879 28.9451 22.4516 28.9631 22.3971 28.981C22.3608 28.999 22.3245 29.0169 22.27 29.0169C22.2155 29.0169 22.2155 29.0887 22.2519 29.1066C22.3063 29.1246 22.3608 29.1246 22.4153 29.1246ZM22.6695 29.4656C22.7059 29.4656 22.7422 29.4656 22.7785 29.4476H22.7967C22.8148 29.4476 22.8148 29.4476 22.833 29.4297C22.8511 29.4297 22.8511 29.4117 22.8511 29.3938C22.8693 29.3758 22.8511 29.3399 22.833 29.322C22.8148 29.322 22.8148 29.3041 22.7967 29.3041H22.7785C22.7603 29.3041 22.7422 29.3041 22.7422 29.3041C22.7058 29.3041 22.6695 29.322 22.6332 29.322C22.5969 29.322 22.5787 29.3399 22.5424 29.3399C22.5243 29.3399 22.5061 29.3399 22.5061 29.3579C22.4879 29.3579 22.4698 29.3579 22.4698 29.3579C22.4335 29.3579 22.4335 29.4297 22.4698 29.4476C22.4879 29.4476 22.5061 29.4476 22.5243 29.4476C22.5424 29.4476 22.5606 29.4476 22.5787 29.4476C22.5969 29.4656 22.6332 29.4656 22.6695 29.4656ZM22.8875 29.7527C22.9056 29.7527 22.9056 29.7527 22.9238 29.7527H22.9419C22.9419 29.7527 22.9419 29.7527 22.9601 29.7527C22.9783 29.7527 22.9964 29.7348 22.9964 29.7168C22.9964 29.6989 22.9964 29.6809 22.9964 29.663C22.9783 29.645 22.9783 29.645 22.9601 29.645H22.9419C22.9238 29.645 22.9238 29.645 22.9056 29.645C22.8875 29.645 22.8875 29.645 22.8693 29.645C22.8511 29.645 22.8511 29.645 22.8511 29.663C22.8148 29.6809 22.7785 29.6989 22.724 29.7168C22.7059 29.7168 22.7059 29.7527 22.7059 29.7707C22.7059 29.7886 22.7422 29.8066 22.7603 29.7886C22.7967 29.7707 22.833 29.7707 22.8875 29.7527ZM23.1962 30.0757C23.1962 30.0578 23.178 30.0578 23.178 30.0578C23.1599 30.0399 23.1599 30.0399 23.1417 30.0219C23.1235 30.0219 23.1235 30.0219 23.1054 30.0219C23.0872 30.0219 23.0691 30.0219 23.0509 30.0219C23.0146 30.0219 22.9783 30.0399 22.9601 30.0578C22.9419 30.0757 22.9238 30.0937 22.9419 30.1296C22.9601 30.1475 22.9783 30.1655 22.9964 30.1655H23.0146C23.0327 30.1655 23.0509 30.1655 23.0691 30.1655C23.0872 30.1655 23.0872 30.1655 23.1054 30.1655C23.1235 30.1655 23.1235 30.1655 23.1417 30.1655C23.1417 30.1655 23.1417 30.1655 23.1599 30.1655H23.178C23.1962 30.1475 23.2143 30.1116 23.1962 30.0757ZM26.7011 25.984C26.6829 25.984 26.6466 25.9661 26.6284 25.9661C26.5921 25.9481 26.5558 25.9481 26.5195 25.9302C26.465 25.9481 26.3924 25.9661 26.3379 25.984C26.1744 26.0199 26.011 26.0737 25.8476 26.0917C25.6478 26.1276 24.4311 26.325 23.8681 26.1276C23.9226 26.1276 23.9589 26.1096 24.0134 26.1096C24.1405 26.0917 24.4855 26.002 24.5219 26.002C24.6308 25.984 25.1393 25.9122 25.2664 25.8943C25.4299 25.8763 25.5751 25.8584 25.7386 25.8045C25.8294 25.7687 25.9202 25.7328 25.9928 25.6969C25.9565 25.6789 25.9202 25.661 25.8839 25.643C25.7023 25.6969 25.5025 25.7148 25.3028 25.7328C25.0485 25.7507 23.8499 25.984 23.4323 25.7507C23.4141 25.7507 23.3959 25.7328 23.3959 25.7328C23.4141 25.7328 23.4323 25.7328 23.4323 25.7328C23.5231 25.7148 23.632 25.6969 23.7228 25.6789C23.7955 25.661 24.3947 25.5174 24.5945 25.4636C24.7579 25.4277 24.9214 25.3918 25.0848 25.3738C25.1575 25.3559 25.2301 25.3559 25.3028 25.3379C25.2846 25.3379 25.2846 25.32 25.2664 25.32C25.2119 25.2841 25.1575 25.2662 25.103 25.2303C24.9577 25.2482 24.8124 25.2841 24.649 25.3021C24.4129 25.3379 23.3596 25.4456 22.7967 25.3379C22.9964 25.32 23.178 25.2841 23.3778 25.2482C23.4504 25.2303 24.1223 25.0508 24.2676 25.0329C24.3947 25.0149 24.54 24.997 24.6671 24.979C24.6127 24.9431 24.5582 24.9072 24.5219 24.8713C24.3221 24.8713 24.1223 24.9072 23.9226 24.9611C23.741 24.997 22.7967 25.1944 22.1792 24.997C22.1429 24.997 22.1247 24.979 22.0884 24.979C22.1974 24.979 22.3245 24.979 22.4335 24.9611C22.5243 24.9611 22.5969 24.9611 22.6877 24.9431C22.7603 24.9252 22.8511 24.9252 22.9238 24.9072C23.0691 24.8893 23.2325 24.8534 23.3778 24.8175C23.6502 24.7457 23.9044 24.6919 24.1768 24.6201C24.1405 24.5842 24.1042 24.5483 24.0497 24.5304C23.8499 24.5483 23.6502 24.6022 23.4504 24.656C23.2688 24.6919 22.3245 24.8713 21.7434 24.5842C21.7797 24.5842 21.8342 24.5842 21.8705 24.5842C22.0339 24.6022 22.7422 24.4765 22.9056 24.4406C23.0327 24.4047 23.178 24.3868 23.3051 24.3509C23.3778 24.333 23.4323 24.315 23.5049 24.2971C23.5594 24.2791 23.632 24.2432 23.6865 24.2073C23.6683 24.1894 23.6502 24.1714 23.632 24.1535C23.5957 24.1535 23.5412 24.1714 23.5049 24.1714C23.4323 24.1714 23.3778 24.1894 23.3233 24.2073C23.1962 24.2432 22.4516 24.3689 21.6526 24.2791C21.5436 24.2612 21.1078 24.1535 21.0351 24.1356C21.0896 24.1356 21.1441 24.1356 21.1986 24.1356C21.4891 24.1535 21.5436 24.1714 21.7797 24.1535C21.8886 24.1535 22.3063 24.0638 22.3971 24.0458C22.6514 24.0099 22.9238 23.9561 23.178 23.8484C23.2325 23.8305 23.2143 23.7407 23.1599 23.7587C22.9238 23.7946 22.6877 23.8664 22.4516 23.9023C22.3063 23.9202 21.816 23.9561 21.4165 23.9023C21.3075 23.8843 21.0896 23.8484 20.8354 23.7228C20.8172 23.7048 20.799 23.7048 20.7809 23.6869C20.799 23.6869 20.8172 23.6869 20.8535 23.6869C21.7979 23.7228 22.2155 23.6331 22.4698 23.5792C22.5969 23.5613 22.7422 23.5254 22.8693 23.4895C22.8875 23.4895 22.9238 23.4715 22.9419 23.4715C22.9056 23.4356 22.8875 23.4177 22.8511 23.3818C22.8511 23.3818 22.8511 23.3818 22.833 23.3818C22.7058 23.4177 22.5969 23.4356 22.4698 23.4356C21.2349 23.5254 20.7264 23.2562 20.1998 23.4715C20.1453 23.4895 19.6368 23.7766 19.5097 23.8843C19.5278 23.9023 19.5278 23.9202 19.546 23.9381C19.7094 23.8484 19.9092 23.7766 20.0908 23.7407C20.2542 23.7048 20.4177 23.6869 20.5811 23.6869C20.5993 23.7048 20.6174 23.7048 20.6356 23.7228C20.7082 23.7587 20.7809 23.8125 20.8354 23.8484C20.8535 23.8664 20.8717 23.8664 20.8898 23.8843C20.1271 23.9561 19.7821 24.3868 19.8002 24.4227C19.8729 24.3868 19.9274 24.3509 20 24.333C20.0908 24.2971 20.1998 24.2432 20.3087 24.2253C20.7082 24.1535 20.9806 24.315 21.017 24.333C20.9806 24.333 20.5085 24.5483 20.4177 24.5842C20.3087 24.638 20.2179 24.6919 20.1271 24.7816C20.109 24.7996 20.1271 24.8175 20.1453 24.8175C20.3995 24.6739 20.6538 24.638 20.7627 24.638C21.1441 24.6201 21.471 24.7816 21.4891 24.7816C21.4347 24.7816 20.6538 25.0688 20.5266 25.1226C20.454 25.1405 20.3995 25.1764 20.345 25.2123C20.3632 25.2303 20.3814 25.2482 20.3995 25.2662L20.4177 25.2841C21.362 24.997 21.8342 25.1944 21.8705 25.1944C21.8342 25.1944 20.9988 25.3918 20.6901 25.6071C20.7082 25.6251 20.7264 25.661 20.7627 25.6789C21.0351 25.5533 21.2349 25.5174 21.362 25.4995C21.6162 25.4456 22.3427 25.5174 22.3608 25.5174C22.3245 25.5174 21.6163 25.7687 21.471 25.8225C21.3983 25.8584 21.3257 25.8943 21.253 25.9302C21.2167 25.9661 21.1804 25.984 21.1259 26.0199C21.1441 26.0379 21.1622 26.0558 21.1804 26.0737C21.2894 26.0199 21.3802 25.984 21.4891 25.9481C21.6163 25.8943 21.7615 25.8584 21.8886 25.8225C22.0702 25.7866 22.7059 25.8584 22.7785 25.8943C22.7967 25.9122 22.833 25.9122 22.8511 25.9302C22.7422 25.9481 22.27 26.0558 22.1792 26.0737C22.1066 26.0917 22.0158 26.1096 21.9431 26.1276C21.7979 26.1814 21.6344 26.2532 21.5073 26.3609C21.4891 26.3788 21.5073 26.4147 21.5436 26.4147C21.6889 26.3609 21.816 26.2891 21.9613 26.2353C22.1066 26.1814 22.2518 26.1455 22.4153 26.1455C22.615 26.1455 23.3233 26.2711 23.4141 26.307C23.4141 26.307 23.4141 26.307 23.4323 26.307C23.3415 26.325 23.2507 26.3429 23.1417 26.3429C23.1235 26.3429 23.1235 26.3429 23.1054 26.3429C23.0691 26.3429 23.0327 26.3609 22.9783 26.3609C22.9238 26.3609 21.9613 26.4865 21.707 26.7198C21.6889 26.7378 21.7071 26.7736 21.7434 26.7736C21.8887 26.7198 22.0339 26.648 22.1974 26.6121C22.3427 26.5762 22.5061 26.5583 22.6514 26.5403C22.833 26.5224 24.2131 26.4865 24.3221 26.4865C24.5219 26.4686 24.7398 26.4327 24.9395 26.3968C25.0485 26.3788 25.6841 26.2532 25.7749 26.2353C25.9565 26.1994 26.1381 26.1635 26.3197 26.1096C26.465 26.0737 26.574 26.0378 26.7011 25.984ZM27.5183 17.7108C27.5728 17.5134 27.7725 16.975 28.0268 16.5802C28.0994 16.4546 28.2084 16.3649 28.1902 16.2213C28.1539 16.0777 28.0449 15.988 27.8996 15.9341C27.7725 15.8803 27.6454 15.8444 27.5001 15.8265C27.2459 15.7906 26.9735 15.8085 26.7192 15.8444C26.465 15.8803 26.2108 15.9341 25.9747 16.0059C25.8476 16.0418 25.7204 16.0957 25.5933 16.1495H25.5752C25.3209 16.2392 25.0848 16.3649 24.8669 16.4905C24.7579 16.5623 24.649 16.6161 24.54 16.6879C24.4311 16.7597 24.3221 16.8494 24.195 16.9212C24.1587 16.9571 24.195 17.0109 24.2313 16.975C24.3221 16.9212 24.4311 16.8673 24.54 16.8135C26.356 15.97 27.0643 16.0059 27.3548 16.0957C27.5001 16.1315 27.4638 16.3649 27.4456 16.5084C27.4456 16.5443 27.4275 16.5802 27.4275 16.6161C27.3004 16.5443 27.1369 16.5264 26.9735 16.5443C26.7192 16.5623 26.4832 16.652 26.2652 16.7597C26.0473 16.8853 25.8475 17.0109 25.6296 17.1545C25.5207 17.2263 25.4117 17.2981 25.3028 17.3698C25.1938 17.4416 24.8669 17.7288 24.2313 17.7647C24.195 17.7647 24.1768 17.8185 24.2313 17.8364C24.3403 17.8544 24.4492 17.8723 24.5582 17.8723C24.6671 17.8723 24.7943 17.8723 24.9032 17.8364C25.1393 17.8005 25.3391 17.657 25.557 17.5314C25.7567 17.4057 25.9747 17.2801 26.1744 17.1365C26.356 17.0109 26.5558 16.9032 26.7737 16.8315C26.8827 16.7956 27.0098 16.7776 27.1369 16.7956C27.2096 16.7956 27.3004 16.8315 27.3548 16.8673C27.3367 16.9212 27.3185 16.9571 27.3185 17.0109C27.3004 17.1006 27.264 17.1724 27.2459 17.2622C27.2459 17.2622 27.2459 17.2622 27.2459 17.2801C27.2277 17.2622 26.8645 17.1186 26.1563 17.4775C25.9565 17.5672 25.557 17.8723 24.8124 17.9441C24.7761 17.9441 24.7943 17.998 24.8124 17.998C24.994 18.0338 25.3391 17.998 25.448 17.98C25.557 17.9621 25.666 17.9262 25.7568 17.8903C25.8657 17.8544 25.9565 17.8005 26.0655 17.7647C26.4832 17.5493 26.7011 17.5314 26.7192 17.5314C26.7011 17.5852 26.6466 17.7467 26.81 17.998C26.9008 18.1415 27.0461 18.1954 27.0643 18.1954C27.0643 18.2133 27.0643 18.2492 27.0643 18.2671C27.0461 18.2671 26.6829 18.3569 25.7749 18.2313C25.7567 18.2313 25.7567 18.2492 25.7749 18.2492C26.2289 18.6081 26.9916 18.5543 27.028 18.5543C27.0098 18.662 26.9916 18.7876 26.9553 18.8953C26.9372 18.985 26.9008 19.0568 26.8827 19.1465C26.8464 19.2362 26.8282 19.308 26.81 19.3978C26.81 19.4516 26.8645 19.4695 26.9008 19.4336C26.9735 19.3619 26.9916 19.2901 27.028 19.2003C27.028 19.1645 27.3367 18.2671 27.5183 17.7108ZM29.1527 21.1385C29.1345 21.0668 28.8984 20.8873 28.5716 20.9052C28.4263 20.9052 28.3536 20.9232 28.2265 20.977C28.1539 21.0129 28.0812 21.0847 28.0268 21.1385C27.9723 21.1924 27.8996 21.2283 27.827 21.2283C27.6999 21.2283 27.482 21.0488 27.6454 20.7258L27.6999 20.636C27.7544 20.5643 27.6817 20.4207 27.5909 20.4386C27.5364 20.4386 27.5001 20.4745 27.4638 20.5104C27.264 20.7258 27.3548 21.0309 27.373 21.1026C27.482 21.4077 27.7907 21.4077 27.936 21.3898C27.9904 21.3898 28.2447 21.2821 28.3173 21.2642C28.6624 21.1206 29.0256 21.2462 29.0619 21.2462C29.1164 21.2283 29.1527 21.1924 29.1527 21.1385ZM15.1513 21.2283C15.1149 21.4975 15.1876 21.7667 15.3147 22C15.4418 22.2153 15.6234 22.3948 15.8595 22.5024C15.914 22.5204 15.9685 22.5563 16.0229 22.5742C15.9321 22.646 15.8595 22.7716 15.805 22.8793C15.7324 23.0229 15.6597 23.1665 15.6234 23.31C15.5689 23.4536 15.5508 23.6151 15.5508 23.7587C15.46 23.5074 15.46 23.0947 15.46 23.0408C15.46 23.0049 15.4055 23.0049 15.4055 23.0408C15.3873 23.0767 15.3692 23.1126 15.3692 23.1665C15.3692 23.2023 15.351 23.2562 15.351 23.2921C15.2965 23.7228 15.4418 24.0279 15.46 24.0638C15.1876 23.8305 15.1513 23.2562 15.1513 23.0049C15.1513 22.969 15.0968 22.969 15.0786 23.0049C15.0241 23.1306 15.006 23.2741 14.9878 23.4177C14.9878 23.5613 15.006 23.7048 15.0423 23.8305C15.0605 23.9023 15.0968 24.0099 15.1513 24.1176C15.1149 24.0817 15.0786 24.0279 15.0241 23.992C14.8244 23.7407 14.6973 23.1485 14.7517 22.8973C14.7517 22.8793 14.7154 22.8614 14.7154 22.8793C14.6065 23.1485 14.6246 23.4356 14.6791 23.7048C14.6973 23.8125 14.7154 23.9202 14.7517 24.0279C14.3885 23.651 14.3704 22.8075 14.3885 22.664C14.3885 22.6281 14.334 22.6281 14.334 22.664C14.2977 22.8075 14.2614 22.9511 14.2796 23.0947C14.2796 23.2382 14.2796 23.5433 14.3522 23.7587C14.3159 23.7228 14.2977 23.6869 14.2796 23.651C14.2432 23.5972 14.2251 23.5254 14.1888 23.4715C14.1343 23.3459 14.098 23.2023 14.098 23.0767C14.098 23.0049 14.098 22.9332 14.098 22.8614C14.098 22.7896 14.098 22.7178 14.098 22.6281C14.098 22.5922 14.0435 22.5922 14.0435 22.6281C14.0253 22.6999 13.8982 23.0767 14.0072 23.4536C13.8074 23.1665 13.7166 22.8075 13.8074 22.4486C13.8437 22.323 13.88 22.1974 13.9345 22.0717C13.9708 22 14.0072 21.9461 14.0253 21.8743C14.0435 21.8564 14.0435 21.8205 14.0616 21.8025C14.2977 22.0179 14.7336 22.1435 14.8788 22.1256C14.9152 22.1256 14.897 22.0897 14.8788 22.0717C14.788 22.0179 14.6973 21.982 14.6246 21.9282C14.5338 21.8743 14.4612 21.8205 14.3885 21.7487C14.2432 21.6231 14.1343 21.4616 14.0616 21.2821C13.8982 20.8514 13.8982 20.3848 14.0798 19.972C14.1161 19.8823 14.1525 19.8105 14.2069 19.7208C14.2069 19.7567 14.0798 20.2592 14.2796 20.636C14.3704 20.7796 14.4612 20.9232 14.6428 20.977C14.6791 20.995 14.6973 20.9411 14.6791 20.9232C14.5701 20.7976 14.443 20.654 14.4067 20.4925C14.3522 20.313 14.3704 20.0797 14.4067 19.9003C14.5157 19.3798 14.897 19.0209 14.9152 19.0029C14.9152 19.0388 14.897 19.0927 14.897 19.1286C14.897 19.1465 14.8788 19.1465 14.8788 19.1645C14.6791 19.4695 14.6246 19.8105 14.6609 20.1874C14.6791 20.4386 14.897 20.6899 14.9515 20.7078C14.9697 20.7258 15.0241 20.7078 15.006 20.6719C14.9697 20.6002 14.7336 20.1156 14.897 19.7028C14.897 19.7028 14.897 19.6849 14.9152 19.6849C14.8789 20.0079 14.9515 20.331 15.1876 20.5643C15.2421 20.6181 15.4237 20.7617 15.46 20.7617L15.4418 20.7796C15.3873 20.8335 15.351 20.8873 15.3147 20.9411C15.2057 20.977 15.1694 21.1026 15.1513 21.2283ZM14.4975 22.4127L14.4793 22.3948H14.4612C14.443 22.3948 14.3885 22.4307 14.3704 22.4845V22.5024V22.5204C14.3704 22.5204 14.3704 22.5383 14.3885 22.5383C14.3885 22.5383 14.4067 22.5383 14.4067 22.5563C14.4249 22.5563 14.443 22.5563 14.4612 22.5563C14.4793 22.5563 14.4793 22.5383 14.4975 22.5204C14.4975 22.5025 14.4975 22.4486 14.4975 22.4127ZM15.4781 22.5563V22.5742C15.4781 22.5742 15.4781 22.5922 15.4963 22.5922H15.5145C15.5326 22.5922 15.5326 22.5922 15.5508 22.5922H15.5689C15.5871 22.5922 15.5871 22.5742 15.6053 22.5563C15.6053 22.5383 15.6234 22.5383 15.6234 22.5204V22.5024C15.6234 22.4845 15.6234 22.4845 15.6234 22.4666V22.4486L15.6053 22.4307C15.6053 22.4307 15.5871 22.4307 15.5871 22.4127C15.5871 22.4127 15.5689 22.4127 15.5508 22.4127H15.5326C15.5145 22.4127 15.5145 22.4307 15.4963 22.4307C15.4781 22.4486 15.4781 22.4486 15.46 22.4666L15.4418 22.4845C15.4781 22.5204 15.4781 22.5383 15.4781 22.5563ZM15.3873 22.8793C15.3873 22.8973 15.4055 22.9152 15.4237 22.9152C15.4418 22.9152 15.46 22.9332 15.46 22.9152C15.4781 22.9152 15.4963 22.9152 15.4963 22.8973C15.4963 22.8973 15.4963 22.8973 15.5145 22.8793C15.5145 22.8614 15.5326 22.8614 15.5326 22.8434C15.5326 22.8434 15.5326 22.8434 15.5326 22.8255C15.5326 22.8075 15.5326 22.8075 15.5326 22.7896C15.5326 22.7716 15.5326 22.7716 15.5326 22.7537C15.5326 22.7357 15.5326 22.7357 15.5326 22.7178V22.6999V22.6819C15.5326 22.664 15.5145 22.664 15.4963 22.664C15.4781 22.664 15.4781 22.664 15.46 22.664C15.4418 22.664 15.4418 22.664 15.4237 22.6819C15.4055 22.6999 15.4055 22.6999 15.3873 22.7178C15.3873 22.7357 15.3692 22.7357 15.3692 22.7537C15.3692 22.7716 15.3692 22.7716 15.3692 22.7896C15.3873 22.8255 15.3873 22.8434 15.3873 22.8793ZM14.897 21.0847V21.0668V21.0488C14.897 21.0309 14.8788 21.0309 14.8788 21.0129L14.8607 20.995H14.8425C14.8244 20.995 14.8244 20.977 14.8062 20.977C14.8062 20.977 14.8062 20.977 14.7881 20.977H14.7699H14.7517H14.7336C14.7336 20.977 14.7154 20.977 14.7154 20.995L14.6972 21.0129C14.6972 21.0129 14.6972 21.0129 14.6972 21.0309C14.6972 21.0488 14.6972 21.0488 14.6972 21.0668V21.0847L14.7154 21.1026L14.7336 21.1206C14.7336 21.1206 14.7517 21.1206 14.7517 21.1385C14.7699 21.1385 14.7699 21.1565 14.7881 21.1565C14.8062 21.1565 14.8062 21.1565 14.8244 21.1565H14.8425C14.8425 21.1565 14.8607 21.1565 14.8607 21.1385C14.8789 21.1026 14.8789 21.1026 14.897 21.0847ZM14.9152 22.6101C14.9152 22.5922 14.9152 22.5922 14.9152 22.6101C14.9152 22.5922 14.9152 22.5742 14.897 22.5742C14.897 22.5563 14.8789 22.5563 14.8607 22.5563C14.8425 22.5563 14.8425 22.5563 14.8244 22.5563C14.8244 22.5563 14.8062 22.5563 14.8062 22.5742L14.7881 22.5922C14.7699 22.6101 14.7699 22.6281 14.7699 22.646L14.7517 22.6999C14.7517 22.7178 14.7517 22.7357 14.7517 22.7537C14.7517 22.7716 14.7699 22.7716 14.7881 22.7896C14.8062 22.7896 14.8244 22.7896 14.8425 22.7896C14.8607 22.7896 14.8607 22.7716 14.8788 22.7537C14.8788 22.7357 14.8789 22.7178 14.897 22.6999V22.6819C14.9152 22.6281 14.9152 22.6101 14.9152 22.6101ZM14.9152 22.3768C14.8425 22.3768 14.8425 22.4845 14.9152 22.4845C14.9878 22.4845 14.9878 22.3768 14.9152 22.3768ZM15.0786 20.7796C15.0786 20.7617 15.0786 20.7617 15.0786 20.7796C15.0786 20.7617 15.0786 20.7617 15.0786 20.7617V20.7437C15.0786 20.7258 15.0605 20.7078 15.0423 20.7078C15.0241 20.7078 15.006 20.7078 14.9878 20.7258C14.9697 20.7437 14.9697 20.7617 14.9697 20.7796C14.9697 20.7976 14.9697 20.7976 14.9878 20.8155C14.9878 20.8155 15.006 20.8335 15.0241 20.8335C15.0241 20.8335 15.0241 20.8335 15.0423 20.8335H15.0605H15.0786C15.0786 20.8335 15.0968 20.8335 15.0968 20.8155C15.0968 20.8155 15.0968 20.8155 15.0968 20.7976C15.0786 20.7976 15.0786 20.7976 15.0786 20.7796ZM15.1694 22.5383V22.5563V22.5742C15.1694 22.5742 15.1694 22.5922 15.1876 22.5922C15.1876 22.5922 15.2057 22.5922 15.2057 22.6101H15.2239H15.2421H15.2602H15.2784L15.2965 22.5922C15.2965 22.5922 15.2965 22.5742 15.3147 22.5742C15.3147 22.5563 15.3329 22.5563 15.3329 22.5383V22.5204V22.5024C15.3329 22.4845 15.3329 22.4845 15.3329 22.4845C15.3329 22.4666 15.3329 22.4666 15.3329 22.4486L15.3147 22.4307L15.2965 22.4127C15.2784 22.4127 15.2784 22.4127 15.2602 22.4127C15.2602 22.4127 15.2421 22.4127 15.2421 22.4307L15.2239 22.4486L15.2057 22.4666C15.2057 22.4666 15.2057 22.4666 15.2057 22.4845V22.5024C15.1694 22.5204 15.1694 22.5204 15.1694 22.5383ZM15.0968 22.8075C15.0968 22.8255 15.0968 22.8434 15.1149 22.8434C15.1331 22.8614 15.1331 22.8614 15.1513 22.8614C15.1694 22.8614 15.1876 22.8614 15.1876 22.8434C15.2057 22.8255 15.2239 22.7537 15.2057 22.6819C15.2057 22.664 15.1694 22.646 15.1513 22.664C15.1149 22.6999 15.0968 22.7896 15.0968 22.8075ZM21.2894 14.1036C21.3438 14.0857 21.3983 14.0677 21.471 14.0318C21.4891 14.0139 21.6889 13.7447 21.6889 13.7447C21.5981 13.7806 21.3802 13.9062 21.362 13.9242C21.2894 14.0498 21.2894 14.0857 21.2894 14.1036ZM22.3608 13.4037C22.3245 13.4217 22.27 13.4396 22.2337 13.4755C22.1792 13.5114 22.1066 13.5473 22.0521 13.5652C22.0521 13.5652 21.7797 13.8703 21.7615 13.9062C21.7615 13.9062 21.7615 13.9242 21.7434 13.9242C21.8523 13.8703 21.9795 13.8165 22.0884 13.7627C22.1066 13.7268 22.2882 13.4396 22.3608 13.4037ZM14.9152 15.0009C14.8607 15.0368 14.8062 15.0368 14.7517 15.0368C14.7517 15.0368 14.7517 15.0368 14.7336 15.0368C14.897 15.7008 15.8958 15.5034 16.0411 15.4675C16.4769 15.3419 16.713 15.1445 16.8038 15.0368C16.8038 15.0189 16.822 15.0009 16.822 14.983C16.6222 15.0548 16.0229 15.306 15.4963 15.2342C15.4781 15.2342 15.4781 15.2342 15.4963 15.2342C15.5871 15.2342 16.4225 15.0009 16.6585 14.7676L16.6404 14.7497C16.259 14.8753 15.7142 15.0368 15.1149 14.9471C15.0786 14.9471 15.0968 14.8933 15.1149 14.8933C15.2239 14.8753 16.0048 14.7676 16.4769 14.5164C16.4769 14.4984 16.4588 14.4805 16.4588 14.4626C16.2409 14.5164 15.7142 14.6241 15.2602 14.642C15.914 14.4984 16.3135 14.2831 16.4951 14.1575C16.4951 14.1395 16.5133 14.1216 16.5133 14.1216C16.0774 14.2831 14.8062 14.6061 13.9345 14.66C14.2251 15.0189 14.8607 14.9292 14.897 14.9292C14.9333 14.9471 14.9515 14.983 14.9152 15.0009ZM14.5338 13.996C15.5508 13.8703 16.1501 13.6011 16.4043 13.4576C16.4043 13.4396 16.4043 13.4396 16.4043 13.4217C15.6053 13.655 13.4079 14.0857 12.4091 13.8703C12.8449 14.1934 13.426 14.2472 13.5713 14.2651C14.1343 14.3369 15.4781 14.1754 16.4769 13.7627C16.4769 13.7627 16.4769 13.7447 16.4588 13.7447C15.8413 13.8883 14.6791 14.0139 14.5338 13.996ZM16.0593 16.2572C16.6222 16.2392 17.0399 15.8265 17.1125 15.6829C17.1125 15.6829 17.0944 15.6829 17.0944 15.6649C16.6585 15.988 16.1864 15.988 16.0956 16.0059C16.0774 16.0059 16.0774 15.988 16.0956 15.988C16.5677 15.8265 16.8038 15.6111 16.8946 15.5393C16.8765 15.5034 16.8583 15.4855 16.8401 15.4496C16.6767 15.5393 16.1137 15.8265 15.4055 15.7726C15.4781 16.2392 15.9321 16.2751 16.0593 16.2572ZM13.0992 9.68887C13.0447 9.59913 13.0447 9.52735 13.0628 9.41967C13.081 9.32994 13.1173 9.25816 13.19 9.20432C13.3352 9.18637 13.4805 9.24021 13.6258 9.29405C14.7881 9.76065 18.1477 10.299 18.7288 10.4785C19.2736 10.64 19.8002 10.8015 20.2724 11.0887C20.6719 11.322 21.0533 11.6629 21.1804 12.1116C21.253 12.327 21.253 12.5603 21.1259 12.7577C20.9988 12.9551 20.6901 13.0089 20.4903 13.1166C20.2542 13.2422 20.0908 13.4576 19.9818 13.6909C19.8547 13.9601 19.8002 14.2472 19.7639 14.5343C19.7276 14.8215 19.7639 15.1266 19.8729 15.3958C19.9637 15.6111 20.109 15.7906 20.2542 15.988C20.5085 16.311 20.8898 16.6161 20.9443 17.0289C21.0533 17.8185 19.546 18.7337 19.7094 17.7288V17.7467C19.7276 17.5852 19.7276 17.4775 19.7276 17.4416C19.7458 17.1724 19.5642 16.5264 18.6198 16.7238C17.8571 16.8853 16.6404 17.3878 16.1319 16.634C16.0956 16.5802 16.0774 16.5443 16.0593 16.5084C16.5496 16.5264 17.0944 16.2572 17.2941 16.1495C17.2941 16.1674 17.3123 16.2033 17.3305 16.2213C17.2215 16.329 17.0036 16.5264 16.5859 16.652C16.5677 16.652 16.5859 16.6879 16.6041 16.6879C17.0762 16.7058 17.4757 16.4366 17.4939 16.4187C17.5302 16.4366 17.5665 16.4546 17.621 16.4725C17.6392 16.4725 17.6574 16.4905 17.6755 16.4905C17.9298 16.5443 18.2748 16.4366 18.3656 16.4007C18.4746 16.3649 18.5654 16.329 18.6743 16.2931C18.7288 16.2751 18.7651 16.2572 18.8196 16.2572C18.8741 16.2392 18.9467 16.2213 19.0012 16.2213C19.0557 16.2213 19.0738 16.1316 19.0194 16.1316C18.9649 16.1316 18.9286 16.1136 18.8741 16.1136C18.8378 16.1136 18.8014 16.1136 18.7651 16.1136C18.6925 16.1315 18.6198 16.1315 18.5472 16.1674C18.3656 16.2213 18.1658 16.2751 17.9661 16.2751C17.8389 16.2751 17.6937 16.2213 17.6392 16.1316C17.6029 16.0777 17.5847 16.0239 17.5847 15.97C17.5847 15.9341 17.5847 15.9162 17.5847 15.8803C17.5847 15.8624 17.5847 15.8444 17.5847 15.8265C17.73 15.8265 17.8753 15.7906 18.0206 15.7367C18.1295 15.7008 18.2203 15.647 18.3293 15.5932C18.3837 15.5573 18.5654 15.4316 18.5835 15.3958C18.6017 15.3778 18.5835 15.324 18.5472 15.3419C18.4927 15.3599 18.184 15.4855 18.0206 15.5214C17.839 15.5752 17.3123 15.7188 17.0762 15.3599C17.0399 15.306 17.0217 15.2342 17.0217 15.1804C17.0217 15.1445 17.0399 15.0907 17.0399 15.0368C17.1125 15.0548 17.2033 15.0907 17.2941 15.0907C17.4213 15.1086 17.5302 15.0907 17.6573 15.0548C17.7663 15.0189 17.8571 14.9471 17.9661 14.9112C18.3656 14.7497 18.638 14.8215 18.7106 14.8394C18.747 14.8394 18.7651 14.7856 18.7288 14.7676C18.6925 14.7497 18.4927 14.6241 18.1658 14.6779C17.9661 14.7138 17.7845 14.7856 17.6029 14.8215C17.4213 14.8574 17.2397 14.8215 17.0762 14.7676C17.0036 14.7317 16.9309 14.6959 16.8765 14.642C16.822 14.5882 16.7857 14.5343 16.7675 14.4805C16.7493 14.4267 16.7493 14.4267 16.7493 14.3908C16.7493 14.3549 16.7493 14.3369 16.7675 14.301C16.7675 14.301 16.7675 14.301 16.7675 14.2831L16.7857 14.2651C16.7857 14.2472 16.8038 14.2293 16.8038 14.2293C16.822 14.1934 16.8401 14.1754 16.8583 14.1575C16.9491 14.1754 17.0217 14.1934 17.1125 14.2113C17.3486 14.2472 17.5847 14.2113 17.8208 14.1395C18.0205 14.0857 18.2203 14.0498 18.4382 14.0857C18.5472 14.1036 18.638 14.1395 18.7288 14.1754C18.7833 14.1934 18.8196 14.2293 18.8741 14.2472C18.9286 14.2651 18.983 14.2831 19.0194 14.319C19.0375 14.3369 19.0738 14.301 19.0557 14.2831C19.0012 14.2113 18.9649 14.1395 18.8922 14.0677C18.8196 14.0139 18.747 13.9601 18.6562 13.9242C18.4746 13.8524 18.2929 13.8165 18.0932 13.8344C17.8753 13.8524 17.6573 13.9242 17.4576 13.9421C17.2941 13.9601 17.1125 13.9601 16.9309 13.9062C16.8946 13.9062 16.8765 13.8883 16.8401 13.8703C16.822 13.8703 16.713 13.7985 16.713 13.6909C16.713 13.655 16.6949 13.5473 16.8038 13.5114C16.9309 13.5473 17.0581 13.5652 17.1852 13.5652C17.3849 13.5652 17.5665 13.5294 17.7663 13.4755C17.9479 13.4396 18.1477 13.4037 18.3474 13.4217C18.5472 13.4576 18.747 13.5473 18.9104 13.6729C19.0012 13.7268 19.092 13.6011 19.0194 13.5294C18.747 13.2602 18.3474 13.2063 17.9842 13.2602C17.8026 13.2781 17.621 13.3319 17.4213 13.3499C17.2397 13.3678 17.0762 13.3678 16.9128 13.2781C16.8401 13.2422 16.7857 13.2063 16.7493 13.1345C16.9128 13.1525 17.0944 13.1166 17.2397 13.0807C17.3123 13.0628 17.3123 12.9371 17.2215 12.9371C17.167 12.9371 17.0944 12.9371 17.0399 12.9371C16.9128 12.9192 16.5859 12.9192 16.4769 12.7397C16.4406 12.6679 16.4588 12.5961 16.5133 12.5961C16.6404 12.5782 16.6585 12.4167 16.5314 12.4167C16.2953 12.4167 16.0048 12.3987 15.8413 12.2013C15.7869 12.1295 15.7324 12.0219 15.7324 11.9501C15.7324 11.8962 15.7324 11.8783 15.7505 11.8245C15.7687 11.7706 15.8232 11.7168 15.8595 11.6629C15.9685 11.6988 16.0774 11.7347 16.1864 11.7527C16.6767 11.8245 17.3849 11.6809 17.4394 11.6629C17.4757 11.645 17.4757 11.5912 17.4394 11.5732C17.3486 11.5373 16.6767 11.5373 16.2953 11.4835C16.1319 11.4655 15.5871 11.3938 15.5508 10.963C15.5326 10.7477 15.7505 10.5862 15.9503 10.5323C15.9866 10.5144 15.9685 10.4785 15.9503 10.4785C15.7324 10.4606 15.5326 10.5862 15.4055 10.7656C15.3873 10.7656 15.3873 10.7656 15.3692 10.7656C15.2057 10.6759 13.5895 10.5144 13.0992 9.68887ZM17.0762 12.2013C17.0581 12.2013 17.0399 12.2013 17.0217 12.2013C17.0036 12.2013 16.9854 12.2013 16.9673 12.2193C16.9491 12.2193 16.9128 12.2372 16.8765 12.2372C16.8583 12.2372 16.8401 12.2372 16.8401 12.2372C16.822 12.2372 16.8038 12.2372 16.8038 12.2552L16.7857 12.2731C16.7675 12.2911 16.7675 12.309 16.7675 12.327C16.7857 12.3987 16.8765 12.4167 16.9491 12.3987C17.0217 12.3987 17.0944 12.3628 17.1307 12.309C17.1307 12.2731 17.1125 12.2193 17.0762 12.2013ZM20.0908 17.7288C20.2542 17.8005 20.5085 17.6929 20.5993 17.4955C20.6174 17.4416 20.6356 17.3878 20.6356 17.3519C20.6356 17.2622 20.5448 17.3519 20.4903 17.3878C20.3995 17.4775 20.2179 17.4237 20.1816 17.2981C20.1816 17.2801 20.1634 17.2442 20.1634 17.2263V17.2083C20.1634 17.0827 20.2542 17.0289 20.3087 17.0289C20.3995 17.0468 20.4177 17.1545 20.4722 17.1545C20.5266 17.1724 20.6538 17.0109 20.5266 16.9212C20.3269 16.7776 20.1271 16.9212 20.1271 16.9212C20.0545 16.9571 19.9455 17.0468 19.9092 17.1904C19.8547 17.4237 19.9274 17.657 20.0908 17.7288ZM18.2748 12.6679C18.2385 12.632 18.1658 12.632 18.1114 12.6141C18.075 12.6141 18.0387 12.6141 18.0024 12.6141C17.9661 12.6141 17.9116 12.6141 17.8753 12.632C17.8389 12.632 17.7663 12.65 17.73 12.65C17.6755 12.6679 17.6392 12.6679 17.621 12.7218C17.6029 12.7397 17.6029 12.7936 17.6392 12.7936C17.6755 12.8294 17.7481 12.8115 17.8026 12.8115C17.8571 12.8115 17.9116 12.7936 17.9661 12.7936C18.0205 12.7936 18.0932 12.7756 18.1477 12.7577C18.184 12.7397 18.2566 12.7397 18.293 12.7038C18.2748 12.7038 18.2748 12.6859 18.2748 12.6679ZM18.9467 12.973C18.9467 12.9551 18.9467 12.9371 18.9286 12.9371C18.9286 12.9371 18.9286 12.9371 18.9286 12.9192C18.9286 12.9192 18.9104 12.9012 18.9286 12.9012C18.9286 12.8833 18.9104 12.8833 18.9104 12.8653L18.8922 12.8474C18.8741 12.8294 18.8378 12.7936 18.8196 12.7756C18.7651 12.7397 18.7106 12.7038 18.638 12.6859C18.6017 12.6859 18.5835 12.6859 18.5472 12.6859C18.529 12.6859 18.529 12.7038 18.5109 12.7038C18.4927 12.7038 18.4927 12.7038 18.4746 12.7218C18.4382 12.7397 18.4382 12.7936 18.4927 12.7936C18.4927 12.7936 18.5109 12.7936 18.529 12.7936H18.5472C18.5654 12.7936 18.5835 12.8115 18.6017 12.8115C18.6017 12.8115 18.6017 12.8115 18.6198 12.8115C18.6198 12.8115 18.638 12.8115 18.638 12.8294C18.6562 12.8474 18.6743 12.8474 18.6925 12.8653C18.6925 12.8653 18.6925 12.8653 18.7106 12.8833L18.7288 12.9012C18.747 12.9192 18.7651 12.9371 18.7833 12.9371L18.8014 12.9551L18.8196 12.973L18.8378 12.991C18.8559 13.0089 18.8559 13.0089 18.8741 13.0089C18.9104 13.0448 18.9467 13.0089 18.9467 12.973ZM18.1295 11.5912C18.3656 11.6271 18.5109 11.6988 18.5835 11.7347C18.6562 11.7706 18.9467 11.9321 19.0375 11.9501C19.0738 11.9501 19.092 11.9142 19.0738 11.8962C19.0194 11.8245 18.8378 11.6809 18.638 11.5912C18.5654 11.5553 18.3474 11.5014 18.1295 11.5194C18.1114 11.5373 18.0932 11.5912 18.1295 11.5912ZM17.6392 11.5194C17.6392 11.5373 17.6574 11.5553 17.6755 11.5732C17.6937 11.5732 17.9661 11.6271 18.0024 11.6091C18.0387 11.5912 18.0387 11.5553 18.0206 11.5373C18.0024 11.5194 17.9661 11.5194 17.9479 11.5014C17.9298 11.5014 17.73 11.4835 17.7118 11.4835C17.6573 11.4835 17.6392 11.5014 17.6392 11.5194ZM17.5121 12.0757C17.4394 12.0937 17.3486 12.1116 17.2941 12.1654C17.2578 12.2013 17.276 12.2731 17.3305 12.2731C17.4031 12.2911 17.4757 12.2731 17.5484 12.2552C17.621 12.2372 17.6937 12.2372 17.7663 12.2193C17.9116 12.2013 18.0569 12.1834 18.2022 12.2013C18.3293 12.2193 18.4564 12.2552 18.5654 12.2911C18.6198 12.309 18.6743 12.3449 18.7288 12.3808C18.7833 12.4167 18.8378 12.4526 18.8922 12.4705C18.9104 12.4885 18.9467 12.4526 18.9286 12.4346C18.8559 12.327 18.747 12.2372 18.638 12.1834C18.5109 12.1116 18.3656 12.0757 18.2385 12.0578C18.075 12.0219 17.9297 12.0219 17.7663 12.0219C17.6573 12.0398 17.5847 12.0578 17.5121 12.0757Z" fill="white"/>
</svg>
